<svg width="373" height="103" viewBox="0 0 373 103" fill="none" xmlns="http://www.w3.org/2000/svg">
<path d="M113.666 34.328C116.69 34.328 119.426 34.952 121.874 36.2C124.322 37.4 126.242 39.272 127.634 41.816C129.074 44.36 129.794 47.648 129.794 51.68V74H116.114V53.912C116.114 51.128 115.538 49.112 114.386 47.864C113.282 46.568 111.722 45.92 109.706 45.92C108.266 45.92 106.946 46.256 105.746 46.928C104.546 47.552 103.61 48.536 102.938 49.88C102.266 51.224 101.93 52.976 101.93 55.136V74H88.25V34.976H101.282V46.064L98.762 42.824C100.25 39.992 102.29 37.88 104.882 36.488C107.474 35.048 110.402 34.328 113.666 34.328ZM138.383 74V34.976H152.063V74H138.383ZM145.223 30.656C142.727 30.656 140.711 29.96 139.175 28.568C137.639 27.1761 136.871 25.4481 136.871 23.3841C136.871 21.3201 137.639 19.5921 139.175 18.2001C140.711 16.8081 142.727 16.1121 145.223 16.1121C147.719 16.1121 149.735 16.7841 151.271 18.1281C152.807 19.4241 153.575 21.1041 153.575 23.1681C153.575 25.3281 152.807 27.1281 151.271 28.568C149.783 29.96 147.767 30.656 145.223 30.656ZM178.962 75.008C174.834 75.008 170.85 74.504 167.01 73.496C163.218 72.44 160.122 71.096 157.722 69.464L162.402 58.952C164.658 60.392 167.25 61.592 170.178 62.552C173.154 63.464 176.106 63.92 179.034 63.92C181.002 63.92 182.586 63.752 183.786 63.416C184.986 63.032 185.85 62.552 186.378 61.976C186.954 61.352 187.242 60.632 187.242 59.816C187.242 58.664 186.714 57.752 185.658 57.08C184.602 56.408 183.234 55.856 181.554 55.424C179.874 54.992 178.002 54.56 175.938 54.128C173.922 53.696 171.882 53.144 169.818 52.472C167.802 51.8 165.954 50.936 164.274 49.88C162.594 48.776 161.226 47.36 160.17 45.632C159.114 43.856 158.586 41.624 158.586 38.936C158.586 35.912 159.402 33.176 161.034 30.728C162.714 28.2801 165.21 26.3121 168.522 24.8241C171.834 23.3361 175.962 22.5921 180.906 22.5921C184.218 22.5921 187.458 22.9761 190.626 23.7441C193.842 24.4641 196.698 25.5441 199.194 26.9841L194.802 37.568C192.402 36.272 190.026 35.312 187.674 34.688C185.322 34.016 183.042 33.68 180.834 33.68C178.866 33.68 177.282 33.896 176.082 34.328C174.882 34.712 174.018 35.24 173.49 35.912C172.962 36.584 172.698 37.352 172.698 38.216C172.698 39.32 173.202 40.208 174.21 40.88C175.266 41.504 176.634 42.032 178.314 42.464C180.042 42.848 181.914 43.256 183.93 43.688C185.994 44.12 188.034 44.672 190.05 45.344C192.114 45.968 193.986 46.832 195.666 47.936C197.346 48.992 198.69 50.408 199.698 52.184C200.754 53.912 201.282 56.096 201.282 58.736C201.282 61.664 200.442 64.376 198.762 66.872C197.13 69.32 194.658 71.288 191.346 72.776C188.082 74.264 183.954 75.008 178.962 75.008ZM224.643 74.648C219.651 74.648 215.763 73.424 212.979 70.976C210.195 68.48 208.803 64.736 208.803 59.744V26.2641H222.483V59.6C222.483 60.992 222.867 62.096 223.635 62.912C224.403 63.68 225.387 64.064 226.587 64.064C228.219 64.064 229.611 63.656 230.763 62.84L234.147 72.416C232.995 73.184 231.579 73.736 229.899 74.072C228.219 74.456 226.467 74.648 224.643 74.648ZM203.115 46.64V36.416H231.411V46.64H203.115ZM263.254 74V66.728L262.318 64.928V51.536C262.318 49.376 261.646 47.72 260.302 46.568C259.006 45.368 256.918 44.768 254.038 44.768C252.166 44.768 250.27 45.08 248.35 45.704C246.43 46.28 244.798 47.096 243.454 48.152L238.846 38.864C241.054 37.424 243.694 36.32 246.766 35.552C249.886 34.736 252.982 34.328 256.054 34.328C262.39 34.328 267.286 35.792 270.742 38.72C274.246 41.6 275.998 46.136 275.998 52.328V74H263.254ZM251.734 74.648C248.614 74.648 245.974 74.12 243.814 73.064C241.654 72.008 239.998 70.568 238.846 68.744C237.742 66.92 237.19 64.88 237.19 62.624C237.19 60.224 237.79 58.16 238.99 56.432C240.238 54.656 242.134 53.312 244.678 52.4C247.222 51.44 250.51 50.96 254.542 50.96H263.758V58.088H256.414C254.206 58.088 252.646 58.448 251.734 59.168C250.87 59.888 250.438 60.848 250.438 62.048C250.438 63.248 250.894 64.208 251.806 64.928C252.718 65.648 253.966 66.008 255.55 66.008C257.038 66.008 258.382 65.648 259.582 64.928C260.83 64.16 261.742 63.008 262.318 61.472L264.19 66.512C263.47 69.2 262.054 71.24 259.942 72.632C257.878 73.976 255.142 74.648 251.734 74.648ZM305.069 74.648C300.749 74.648 296.885 73.784 293.477 72.056C290.117 70.328 287.477 67.952 285.557 64.928C283.637 61.856 282.677 58.352 282.677 54.416C282.677 50.48 283.637 47 285.557 43.976C287.477 40.952 290.117 38.6 293.477 36.92C296.885 35.192 300.749 34.328 305.069 34.328C309.485 34.328 313.301 35.264 316.517 37.136C319.733 39.008 322.013 41.648 323.357 45.056L312.773 50.456C311.861 48.632 310.733 47.312 309.389 46.496C308.045 45.632 306.581 45.2 304.997 45.2C303.413 45.2 301.973 45.56 300.677 46.28C299.381 47 298.349 48.056 297.581 49.448C296.861 50.792 296.501 52.448 296.501 54.416C296.501 56.432 296.861 58.136 297.581 59.528C298.349 60.92 299.381 61.976 300.677 62.696C301.973 63.416 303.413 63.776 304.997 63.776C306.581 63.776 308.045 63.368 309.389 62.552C310.733 61.688 311.861 60.344 312.773 58.52L323.357 63.92C322.013 67.328 319.733 69.968 316.517 71.84C313.301 73.712 309.485 74.648 305.069 74.648ZM323.128 74L341.056 50.456L340.768 58.232L323.56 34.976H338.968L348.616 48.728L342.856 49.016L353.08 34.976H367.552L350.344 57.728V50.24L368.056 74H352.432L342.352 59.312L348.112 60.104L337.96 74H323.128Z" fill="url(#paint0_linear_1210_1706)"/>
<mask id="mask0_1210_1706" style="mask-type:luminance" maskUnits="userSpaceOnUse" x="5" y="4" width="77" height="90">
<path d="M81.8174 4H5V93.7336H81.8174V4Z" fill="white"/>
</mask>
<g mask="url(#mask0_1210_1706)">
<g filter="url(#filter0_d_1210_1706)">
<path d="M81.8174 4H5V93.7336H81.8174V4Z" fill="white"/>
<path d="M5 4H81.8174V26.5H5V4Z" fill="#B6B6B6"/>
<path d="M81.8174 26.5004H5V49.0004H81.8174V26.5004Z" fill="#D9D9D9"/>
<path d="M5 49.0002H81.8174V71.5002H5V49.0002Z" fill="#ECECEC"/>
<path d="M5 71.4999H81.8174V93.9998H5V71.4999Z" fill="white"/>
<path d="M43.7403 84.5657C35.0913 84.5657 28.3396 82.1942 23.485 77.4512C18.6304 72.7082 16.2031 65.9843 16.2031 57.2796V24.804H32.7757V56.7774C32.7757 61.7993 33.7521 65.3984 35.7051 67.5746C37.7139 69.7508 40.4481 70.8389 43.9077 70.8389C47.3673 70.8389 50.0736 69.7508 52.0266 67.5746C53.9796 65.3984 54.9561 61.7993 54.9561 56.7774V24.804H71.2776V57.2796C71.2776 65.9843 68.8503 72.7082 63.9957 77.4512C59.1411 82.1942 52.3893 84.5657 43.7403 84.5657Z" fill="#101827"/>
</g>
</g>
<defs>
<filter id="filter0_d_1210_1706" x="0.85322" y="0.53302" width="89.1927" height="102.372" filterUnits="userSpaceOnUse" color-interpolation-filters="sRGB">
<feFlood flood-opacity="0" result="BackgroundImageFix"/>
<feColorMatrix in="SourceAlpha" type="matrix" values="0 0 0 0 0 0 0 0 0 0 0 0 0 0 0 0 0 0 127 0" result="hardAlpha"/>
<feOffset dx="2.0394" dy="2.7192"/>
<feGaussianBlur stdDeviation="3.09309"/>
<feComposite in2="hardAlpha" operator="out"/>
<feColorMatrix type="matrix" values="0 0 0 0 0 0 0 0 0 0 0 0 0 0 0 0 0 0 0.3 0"/>
<feBlend mode="normal" in2="BackgroundImageFix" result="effect1_dropShadow_1210_1706"/>
<feBlend mode="normal" in="SourceGraphic" in2="effect1_dropShadow_1210_1706" result="shape"/>
</filter>
<linearGradient id="paint0_linear_1210_1706" x1="196" y1="129.5" x2="443.5" y2="1.18268e-05" gradientUnits="userSpaceOnUse">
<stop stop-color="#F4F4F4"/>
<stop offset="1" stop-color="#AB68C2"/>
</linearGradient>
</defs>
</svg>
