<?xml version="1.0" encoding="utf-8"?>
<!-- Generator: Adobe Illustrator 27.5.0, SVG Export Plug-In . SVG Version: 6.00 Build 0)  -->
<svg version="1.1" xmlns="http://www.w3.org/2000/svg" xmlns:xlink="http://www.w3.org/1999/xlink" x="0px" y="0px"
	 viewBox="0 0 500 500" style="enable-background:new 0 0 500 500;" xml:space="preserve">
<g id="Floor">
	<path id="Floor_7_" style="fill:#F5F5F5;" d="M415.283,252.941c-91.333-52.515-239.414-52.515-330.748,0
		C-6.8,305.457-6.799,390.6,84.535,443.115c91.336,52.514,239.415,52.514,330.748,0C506.615,390.6,506.615,305.457,415.283,252.941z
		"/>
</g>
<g id="Shadows">
	<polygon id="Shadow_75_" style="fill:#E0E0E0;" points="239.044,368.965 138.7,310.939 292.518,222.133 392.86,280.154 	"/>
	<polygon id="Shadow_74_" style="fill:#E0E0E0;" points="216.384,364.125 107.688,426.881 32.958,383.736 141.655,320.98 	"/>
	<ellipse id="Shadow_73_" style="fill:#E0E0E0;" cx="406.838" cy="371.428" rx="60.973" ry="35.203"/>
	<path id="Shadow_49_" style="fill:#E6E6E6;" d="M266.321,447.845l81.384-47.038c1.357-0.783,1.357-2.053,0-2.837l-61.353-35.858
		c-1.357-0.783-3.556-0.783-4.913,0l-81.383,47.035c-1.357,0.783-1.357,2.053,0,2.837l61.352,35.861
		C262.764,448.628,264.964,448.628,266.321,447.845z"/>
</g>
<g id="Desk">
	<g id="Desk_2_">
		<g id="Table_6_">
			<g id="XMLID_42908_">
				<g id="XMLID_5724_">
					<polygon style="fill:#BA68C8;" points="290.184,160.233 290.185,156.814 290.185,156.814 290.185,130.709 293.198,129.032 
						293.198,158.557 375.746,206.294 375.746,209.777 293.198,161.978 293.198,228.297 290.185,229.973 290.185,160.234 					"/>
					<polygon style="opacity:0.4;" points="290.184,160.233 290.185,156.814 290.185,156.814 290.185,130.709 293.198,129.032 
						293.198,158.557 375.746,206.294 375.746,209.777 293.198,161.978 293.198,228.297 290.185,229.973 290.185,160.234 					"/>
					<path style="fill:#BA68C8;" d="M287.17,125.611v3.423v6.489v92.775l3.015,1.676v-66.377l85.558,49.538v66.328l3.018,1.796
						v-99.264v0v-3.42L287.17,125.611z M290.185,137.259l85.558,49.278v23.234l-85.558-49.539V137.259z"/>
					<path style="opacity:0.2;" d="M287.17,125.611v3.423v6.489v92.775l3.015,1.676v-66.377l85.558,49.538v66.328l3.018,1.796
						v-99.264v0v-3.42L287.17,125.611z M290.185,137.259l85.558,49.278v23.234l-85.558-49.539V137.259z"/>
				</g>
			</g>
			<g id="XMLID_42890_">
				<polygon style="fill:#BA68C8;" points="152.8,239.8 152.801,236.381 152.801,236.381 152.801,210.276 155.814,208.599 
					155.814,238.124 238.363,285.861 238.362,289.344 155.814,241.545 155.814,307.865 152.801,309.54 152.801,239.801 				"/>
				<polygon style="opacity:0.4;" points="152.8,239.8 152.801,236.381 152.801,236.381 152.801,210.276 155.814,208.599 
					155.814,238.124 238.363,285.861 238.362,289.344 155.814,241.545 155.814,307.865 152.801,309.54 152.801,239.801 				"/>
				<polygon style="fill:#BA68C8;" points="378.76,178.818 378.76,178.575 378.975,178.695 381.774,177.079 381.774,180.253 
					381.774,187.449 381.774,279.519 378.76,281.259 378.76,189.184 244.391,266.515 244.391,359.086 241.376,360.826 
					241.376,268.25 241.376,258.142 241.376,258.131 				"/>
				<path style="fill:#BA68C8;" d="M149.786,205.178v3.423v6.489v92.775l3.015,1.676v-66.377l85.558,49.538v66.328l3.018,1.796
					v-92.984v-6.28v-3.42L149.786,205.178z M152.801,239.798v-22.972l85.558,49.277v23.234L152.801,239.798z"/>
				<path style="opacity:0.2;" d="M149.786,205.178v3.423v6.489v92.775l3.015,1.676v-66.377l85.558,49.538v66.328l3.018,1.796
					v-92.984v-6.28v-3.42L149.786,205.178z M152.801,239.798v-22.972l85.558,49.277v23.234L152.801,239.798z"/>
			</g>
			<polygon id="XMLID_42889_" style="fill:#BA68C8;" points="241.376,258.142 149.786,205.178 290.185,124.119 381.774,177.079 			
				"/>
			<polygon id="XMLID_5723_" style="opacity:0.1;" points="241.376,258.142 149.786,205.178 290.185,124.119 381.774,177.079 			"/>
			<polygon id="XMLID_2650_" style="opacity:0.5;fill:#FFFFFF;" points="241.376,258.142 149.786,205.178 290.185,124.119 
				381.774,177.079 			"/>
		</g>
		<g id="Keyboard_1_">
			<path id="Shadow_6_" style="opacity:0.2;" d="M239.767,212.649l25.047,14.587c0.738,0.427,1.934,0.428,2.672,0.003l70.454-40.621
				c0.738-0.426,0.739-1.117,0.002-1.544l-25.048-14.587c-0.737-0.427-1.934-0.428-2.672-0.003l-70.454,40.621
				C239.03,211.53,239.029,212.221,239.767,212.649z"/>
			<g id="Keyboard_4_">
				<g id="XMLID_2637_">
					<path id="XMLID_2648_" style="fill:#263238;" d="M336.016,182.082c0-0.278-0.183-0.556-0.551-0.768l-22.296-12.87
						c-0.734-0.424-1.925-0.424-2.659,0.001l-68.033,39.343c-0.367,0.212-0.55,0.49-0.55,0.767c0,0.278,0,2.061,0,2.338
						c-0.001,0.278,0.184,0.556,0.552,0.768l22.285,12.869c0.735,0.423,1.927,0.422,2.661-0.003l68.04-39.281
						c0.366-0.211,0.549-0.488,0.551-0.765C336.017,184.204,336.016,182.36,336.016,182.082z"/>
					<path id="XMLID_2639_" style="fill:#37474F;" d="M264.763,222.133l-22.285-12.811c-0.735-0.423-0.736-1.109-0.002-1.534
						l68.033-39.343c0.734-0.425,1.925-0.425,2.659-0.001l22.296,12.87c0.734,0.424,0.734,1.112,0,1.535l-68.04,39.281
						C266.69,222.554,265.499,222.555,264.763,222.133z"/>
					<path id="XMLID_2638_" style="fill:#263238;" d="M266.008,222.449v2.39c-0.45-0.01-0.901-0.112-1.249-0.307l-22.277-12.869
						c-0.368-0.215-0.553-0.491-0.553-0.768v-2.344c0,0.276,0.184,0.553,0.553,0.768l22.277,12.818
						C265.107,222.331,265.558,222.439,266.008,222.449z"/>
				</g>
				<path id="XMLID_324_" style="fill:#BA68C8;" d="M266.185,220.105c-0.024,0-0.043-0.006-0.048-0.009l-2.206-1.274l2.993-1.729
					l2.28,1.282l-2.99,1.727L266.185,220.105z M262.732,218.111c-0.025,0-0.044-0.006-0.049-0.009l-2.207-1.274l2.351-1.358
					l2.281,1.283l-2.348,1.356L262.732,218.111z M270.368,217.691c-0.025,0-0.043-0.006-0.048-0.009l-2.208-1.275l2.35-1.357
					l2.281,1.283l-2.347,1.355L270.368,217.691z M259.277,216.116c-0.026,0-0.045-0.006-0.051-0.009l-2.206-1.274l3.798-2.193
					l2.282,1.282l-3.796,2.192L259.277,216.116z M266.271,216.067c-0.025,0-0.044-0.006-0.049-0.009l-2.207-1.274l1.867-1.079
					l2.283,1.283l-1.866,1.077L266.271,216.067z M273.907,215.647c-0.025,0-0.044-0.006-0.049-0.009l-2.206-1.274l2.35-1.358
					l2.28,1.283l-2.348,1.355L273.907,215.647z M269.328,214.304c-0.026,0-0.046-0.007-0.052-0.01l-2.206-1.274l1.869-1.078
					l2.281,1.282l-1.865,1.077L269.328,214.304z M255.823,214.122c-0.026,0-0.045-0.006-0.051-0.009l-2.206-1.274l2.994-1.728
					l2.281,1.283l-2.991,1.727L255.823,214.122z M277.446,213.604c-0.025,0-0.044-0.006-0.049-0.009l-2.206-1.274l16.988-9.809
					l2.281,1.284l-16.986,9.806L277.446,213.604z M264.264,213.237c-0.026,0-0.045-0.006-0.051-0.009l-2.205-1.274l1.868-1.078
					l2.281,1.282l-1.865,1.077L264.264,213.237z M272.384,212.538c-0.026,0-0.045-0.006-0.051-0.009l-2.206-1.274l1.869-1.078
					l2.28,1.282l-1.865,1.077L272.384,212.538z M252.369,212.127c-0.026,0-0.045-0.006-0.051-0.009l-2.206-1.274l1.869-1.078
					l2.283,1.282l-1.866,1.077L252.369,212.127z M260.005,211.707c-0.025,0-0.044-0.006-0.049-0.009l-2.207-1.274l1.869-1.079
					l2.281,1.283l-1.866,1.077L260.005,211.707z M267.321,211.472c-0.026,0-0.045-0.006-0.051-0.009l-2.206-1.274l1.868-1.078
					l2.283,1.283l-1.866,1.076L267.321,211.472z M275.44,210.773c-0.026,0-0.045-0.006-0.051-0.009l-2.205-1.274l1.868-1.078
					l2.282,1.283l-1.866,1.076L275.44,210.773z M255.426,210.363c-0.026,0-0.045-0.006-0.051-0.009l-2.206-1.274l1.868-1.078
					l2.281,1.282l-1.865,1.077L255.426,210.363z M263.062,209.943c-0.025,0-0.044-0.006-0.049-0.009l-2.206-1.274l1.867-1.079
					l2.281,1.283l-1.866,1.077L263.062,209.943z M270.378,209.709c-0.025,0-0.044-0.007-0.05-0.01l-2.207-1.274l1.868-1.078
					l2.282,1.283l-1.866,1.076L270.378,209.709z M248.177,209.707c-0.026,0-0.045-0.006-0.05-0.009l-2.207-1.274l2.352-1.357
					l2.281,1.283l-2.349,1.354L248.177,209.707z M278.496,209.009c-0.026,0-0.045-0.006-0.051-0.009l-2.206-1.274l1.869-1.078
					l2.28,1.282l-1.865,1.077L278.496,209.009z M258.482,208.598c-0.026,0-0.045-0.006-0.051-0.009l-2.205-1.274l1.867-1.078
					l2.281,1.282l-1.865,1.077L258.482,208.598z M266.119,208.178c-0.026,0-0.045-0.006-0.05-0.009l-2.208-1.274l1.869-1.079
					l2.281,1.283l-1.866,1.077L266.119,208.178z M273.433,207.943c-0.025,0-0.044-0.006-0.049-0.009l-2.207-1.274l1.869-1.078
					l2.282,1.283l-1.865,1.076L273.433,207.943z M281.552,207.244c-0.026,0-0.045-0.006-0.051-0.009l-2.205-1.274l1.868-1.078
					l2.281,1.282l-1.865,1.077L281.552,207.244z M253.045,206.896c-0.025,0-0.044-0.006-0.049-0.009l-2.208-1.275l1.869-1.078
					l2.281,1.283l-1.866,1.077L253.045,206.896z M261.539,206.834c-0.026,0-0.046-0.007-0.052-0.01l-2.206-1.274l1.868-1.078
					l2.283,1.283l-1.866,1.076L261.539,206.834z M269.175,206.413c-0.026,0-0.045-0.006-0.05-0.009l-2.207-1.274l1.869-1.079
					l2.281,1.283l-1.865,1.077L269.175,206.413z M276.49,206.18c-0.026,0-0.046-0.007-0.052-0.01l-2.206-1.274l1.869-1.078
					l2.281,1.283l-1.866,1.076L276.49,206.18z M284.61,205.481c-0.025,0-0.044-0.007-0.05-0.01l-2.208-1.274l1.869-1.078
					l2.282,1.283l-1.866,1.076L284.61,205.481z M256.102,205.132c-0.027,0-0.046-0.006-0.052-0.009l-2.205-1.274l1.867-1.079
					l2.282,1.283l-1.866,1.077L256.102,205.132z M264.593,205.07c-0.025,0-0.043-0.006-0.048-0.009l-2.207-1.275l1.869-1.078
					l2.281,1.283l-1.865,1.076L264.593,205.07z M272.232,204.649c-0.026,0-0.045-0.006-0.05-0.009l-2.206-1.274l1.867-1.079
					l2.282,1.283l-1.865,1.077L272.232,204.649z M279.546,204.415c-0.025,0-0.044-0.006-0.049-0.009l-2.207-1.275l1.868-1.078
					l2.282,1.283l-1.866,1.076L279.546,204.415z M287.665,203.715c-0.025,0-0.044-0.006-0.049-0.009l-2.208-1.274l1.868-1.078
					l2.281,1.282l-1.865,1.077L287.665,203.715z M259.158,203.367c-0.026,0-0.045-0.006-0.051-0.009l-2.204-1.274l1.867-1.079
					l2.281,1.283l-1.866,1.077L259.158,203.367z M267.651,203.304c-0.026,0-0.045-0.006-0.051-0.009l-2.205-1.274l1.868-1.078
					l2.281,1.283l-1.866,1.076L267.651,203.304z M295.624,203.109c-0.026,0-0.045-0.006-0.05-0.009l-2.207-1.274l2.351-1.357
					l2.283,1.283l-2.348,1.355L295.624,203.109z M275.288,202.884c-0.026,0-0.045-0.006-0.05-0.009l-2.208-1.274l1.869-1.079
					l2.282,1.283l-1.866,1.077L275.288,202.884z M282.601,202.65c-0.025,0-0.043-0.006-0.048-0.009l-2.207-1.275l1.869-1.078
					l2.281,1.283l-1.866,1.076L282.601,202.65z M290.721,201.951c-0.026,0-0.045-0.006-0.051-0.009l-2.206-1.274l1.869-1.078
					l2.282,1.283l-1.865,1.076L290.721,201.951z M262.214,201.603c-0.025,0-0.044-0.006-0.049-0.009l-2.207-1.274l1.867-1.079
					l2.282,1.283l-1.866,1.077L262.214,201.603z M270.708,201.54c-0.026,0-0.046-0.007-0.052-0.01l-2.206-1.274l1.869-1.078
					l2.281,1.283l-1.866,1.076L270.708,201.54z M278.344,201.12c-0.026,0-0.045-0.006-0.05-0.009l-2.207-1.274l1.868-1.079
					l2.282,1.283l-1.866,1.077L278.344,201.12z M299.163,201.067c-0.026,0-0.046-0.007-0.052-0.01l-2.206-1.274l2.35-1.357
					l2.283,1.282l-2.349,1.356L299.163,201.067z M285.659,200.886c-0.026,0-0.046-0.007-0.052-0.01l-2.205-1.274l1.868-1.078
					l2.281,1.283l-1.866,1.076L285.659,200.886z M293.779,200.187c-0.026,0-0.046-0.007-0.052-0.01l-2.205-1.274l1.869-1.078
					l2.28,1.282l-1.865,1.077L293.779,200.187z M273.763,199.776c-0.025,0-0.044-0.006-0.049-0.009l-2.207-1.275l1.867-1.078
					l2.283,1.283l-1.866,1.076L273.763,199.776z M281.399,199.355c-0.025,0-0.044-0.006-0.049-0.009l-2.207-1.274l1.869-1.078
					l2.28,1.282l-1.865,1.077L281.399,199.355z M288.715,199.121c-0.025,0-0.044-0.006-0.049-0.009l-2.207-1.275l1.869-1.078
					l2.281,1.283l-1.866,1.076L288.715,199.121z M266.6,199.07c-0.025,0-0.044-0.006-0.049-0.009l-2.207-1.274l1.868-1.079
					l2.281,1.283l-1.866,1.077L266.6,199.07z M302.702,199.023c-0.026,0-0.045-0.006-0.051-0.009l-2.206-1.274l2.35-1.358
					l2.282,1.283l-2.348,1.356L302.702,199.023z M296.833,198.422c-0.025,0-0.043-0.006-0.048-0.009l-2.207-1.275l1.869-1.078
					l2.281,1.283l-1.866,1.076L296.833,198.422z M276.819,198.011c-0.028,0-0.048-0.008-0.052-0.01l-2.203-1.273l1.866-1.079
					l2.283,1.283l-1.866,1.076L276.819,198.011z M284.456,197.59c-0.025,0-0.044-0.006-0.049-0.009l-2.207-1.274l1.868-1.079
					l2.281,1.283l-1.866,1.077L284.456,197.59z M291.771,197.357c-0.025,0-0.044-0.006-0.049-0.009l-2.208-1.275l1.869-1.078
					l2.281,1.283l-1.866,1.076L291.771,197.357z M269.656,197.305c-0.025,0-0.044-0.006-0.049-0.009l-2.206-1.274l1.868-1.079
					l2.281,1.283l-1.866,1.077L269.656,197.305z M306.241,196.98c-0.026,0-0.045-0.006-0.05-0.009l-2.208-1.274l2.995-1.729
					l2.281,1.283l-2.99,1.727L306.241,196.98z M299.891,196.658c-0.025,0-0.044-0.007-0.05-0.01l-2.207-1.274l5.889-3.4l2.282,1.283
					l-5.887,3.398L299.891,196.658z M279.875,196.247c-0.025,0-0.044-0.006-0.05-0.009l-2.206-1.275l1.869-1.078l2.281,1.283
					l-1.866,1.076L279.875,196.247z M287.513,195.826c-0.026,0-0.045-0.006-0.05-0.009l-2.207-1.274l1.868-1.079l2.281,1.283
					l-1.865,1.077L287.513,195.826z M294.827,195.592c-0.024,0-0.043-0.006-0.048-0.009l-2.207-1.275l1.868-1.078l2.281,1.283
					l-1.866,1.076L294.827,195.592z M272.714,195.541c-0.026,0-0.045-0.006-0.05-0.009l-2.207-1.274l1.868-1.079l2.281,1.283
					l-1.865,1.077L272.714,195.541z M282.931,194.482c-0.025,0-0.044-0.006-0.05-0.009l-2.206-1.275l1.869-1.078l2.282,1.283
					l-1.866,1.076L282.931,194.482z M311.066,194.194c-0.024,0-0.042-0.006-0.047-0.009l-2.21-1.275l1.869-1.078l2.282,1.283
					l-1.866,1.076L311.066,194.194z M290.569,194.061c-0.026,0-0.045-0.006-0.05-0.009l-2.207-1.274l1.869-1.078l2.28,1.282
					l-1.865,1.077L290.569,194.061z M297.884,193.827c-0.024,0-0.042-0.006-0.047-0.009l-2.208-1.275l1.707-0.985
					c0.119-0.069,0.191-0.185,0.191-0.311c0-0.132-0.073-0.251-0.203-0.326l-2.898-1.673l2.191-1.264l5.737,3.275l-4.44,2.564
					L297.884,193.827z M275.769,193.776c-0.025,0-0.044-0.006-0.049-0.009l-2.207-1.274l1.869-1.079l2.282,1.283l-1.866,1.077
					L275.769,193.776z M285.988,192.718c-0.025,0-0.044-0.006-0.049-0.009l-2.207-1.274l1.868-1.079l2.281,1.283l-1.866,1.076
					L285.988,192.718z M314.123,192.429c-0.026,0-0.045-0.006-0.05-0.009l-2.207-1.274l1.868-1.078l2.281,1.283l-1.865,1.076
					L314.123,192.429z M293.626,192.297c-0.026,0-0.045-0.006-0.05-0.009l-2.207-1.274l1.868-1.078l2.282,1.283l-1.865,1.076
					L293.626,192.297z M280.156,191.244c-0.026,0-0.045-0.006-0.05-0.009l-2.207-1.274l1.868-1.079l2.282,1.283l-1.866,1.077
					L280.156,191.244z M289.044,190.953c-0.025,0-0.044-0.006-0.05-0.009l-2.204-1.274l1.868-1.079l2.282,1.283l-1.866,1.076
					L289.044,190.953z M317.179,190.665c-0.026,0-0.046-0.006-0.052-0.01l-2.205-1.274l1.868-1.078l2.282,1.283l-1.865,1.076
					L317.179,190.665z M310.668,190.435c-0.026,0-0.045-0.006-0.051-0.009l-2.206-1.275l1.869-1.078l2.281,1.283l-1.866,1.077
					L310.668,190.435z M283.212,189.479c-0.026,0-0.045-0.006-0.05-0.009l-2.207-1.274l1.869-1.078l2.281,1.282l-1.865,1.077
					L283.212,189.479z M292.1,189.188c-0.025,0-0.044-0.006-0.05-0.009l-2.205-1.274l3.315-1.915l2.281,1.283l-3.313,1.911
					L292.1,189.188z M320.879,188.529c-0.025,0-0.044-0.006-0.049-0.009l-2.208-1.274l4.925-2.843l2.282,1.283l-4.922,2.841
					L320.879,188.529z M300.703,188.211c-0.026,0-0.045-0.006-0.051-0.009l-2.206-1.274l1.869-1.079l2.282,1.282l-1.866,1.078
					L300.703,188.211z M286.268,187.715c-0.026,0-0.045-0.006-0.05-0.009l-2.207-1.274l1.869-1.078l2.281,1.282l-1.865,1.077
					L286.268,187.715z M317.424,186.534c-0.026,0-0.045-0.006-0.051-0.009l-2.206-1.274l1.869-1.079l2.281,1.282l-1.866,1.078
					L317.424,186.534z M303.759,186.446c-0.026,0-0.045-0.006-0.051-0.009l-2.205-1.274l1.867-1.079l2.283,1.283l-1.865,1.077
					L303.759,186.446z M297.249,186.216c-0.025,0-0.045-0.006-0.05-0.009l-2.208-1.274l1.869-1.079l2.282,1.283l-1.865,1.077
					L297.249,186.216z M289.325,185.95c-0.026,0-0.045-0.006-0.05-0.009l-2.208-1.273l1.868-1.078l2.281,1.282l-1.865,1.077
					L289.325,185.95z M326.991,184.999c-0.026,0-0.045-0.006-0.051-0.009l-2.204-1.274l1.867-1.079l2.282,1.283l-1.866,1.077
					L326.991,184.999z M320.481,184.769c-0.026,0-0.045-0.006-0.051-0.009l-2.206-1.274l1.867-1.079l2.281,1.283l-1.865,1.077
					L320.481,184.769z M306.816,184.681c-0.026,0-0.045-0.006-0.051-0.009l-2.206-1.274l1.869-1.079l2.282,1.283l-1.866,1.077
					L306.816,184.681z M313.97,184.539c-0.026,0-0.045-0.006-0.05-0.009l-2.207-1.274l1.868-1.078l2.282,1.282l-1.865,1.077
					L313.97,184.539z M300.305,184.451c-0.026,0-0.045-0.006-0.051-0.009l-2.206-1.274l1.868-1.079l2.282,1.283l-1.865,1.077
					L300.305,184.451z M293.057,183.796c-0.026,0-0.045-0.006-0.05-0.009l-2.207-1.274l1.868-1.079l2.281,1.283l-1.865,1.077
					L293.057,183.796z M330.048,183.235c-0.026,0-0.045-0.006-0.051-0.009l-5.66-3.268l1.868-1.079l5.738,3.276l-1.867,1.078
					L330.048,183.235z M323.537,183.005c-0.026,0-0.045-0.006-0.051-0.009l-2.206-1.274l1.868-1.079l2.283,1.283l-1.866,1.077
					L323.537,183.005z M317.026,182.775c-0.026,0-0.045-0.006-0.05-0.009l-2.208-1.274l1.869-1.078l2.281,1.282l-1.865,1.077
					L317.026,182.775z M303.362,182.687c-0.026,0-0.045-0.006-0.051-0.009l-2.206-1.274l1.867-1.079l2.281,1.283l-1.864,1.077
					L303.362,182.687z M310.516,182.546c-0.025,0-0.043-0.006-0.048-0.009l-2.21-1.275l1.869-1.078l2.281,1.283l-1.865,1.076
					L310.516,182.546z M296.113,182.031c-0.026,0-0.045-0.006-0.05-0.009l-2.208-1.274l1.869-1.079l2.281,1.283l-1.865,1.077
					L296.113,182.031z M320.083,181.01c-0.026,0-0.045-0.006-0.05-0.009l-2.208-1.274l1.868-1.078l2.283,1.282l-1.865,1.077
					L320.083,181.01z M313.572,180.781c-0.025,0-0.043-0.006-0.048-0.009l-2.21-1.275l1.869-1.078l2.282,1.283l-1.865,1.076
					L313.572,180.781z M307.061,180.551c-0.025,0-0.044-0.006-0.049-0.009l-2.207-1.274l1.868-1.079l2.281,1.283l-1.865,1.076
					L307.061,180.551z M299.169,180.266c-0.026,0-0.045-0.006-0.05-0.009l-2.207-1.274l1.869-1.079l2.281,1.283l-1.865,1.077
					L299.169,180.266z M323.139,179.246c-0.026,0-0.045-0.006-0.051-0.009l-5.661-3.268l1.868-1.078l5.738,3.275l-1.867,1.078
					L323.139,179.246z M316.628,179.017c-0.024,0-0.042-0.006-0.047-0.009l-2.21-1.275l1.869-1.078l2.281,1.283l-1.866,1.076
					L316.628,179.017z M310.117,178.787c-0.024,0-0.042-0.006-0.047-0.009l-2.208-1.274l1.867-1.079l2.281,1.283l-1.865,1.076
					L310.117,178.787z M301.982,177.618c-0.026,0-0.045-0.006-0.05-0.009l-0.958-0.541l1.867-1.079l1.025,0.554l-1.857,1.073
					L301.982,177.618z M313.173,177.022c-0.025,0-0.044-0.006-0.049-0.009l-2.207-1.274l1.868-1.079l2.281,1.283l-1.866,1.076
					L313.173,177.022z M305.038,175.853c-0.026,0-0.045-0.006-0.051-0.009l-0.957-0.541l1.868-1.079l1.025,0.554l-1.857,1.073
					L305.038,175.853z M316.229,175.258c-0.025,0-0.044-0.006-0.049-0.009l-2.207-1.274l1.868-1.079l2.281,1.283l-1.864,1.076
					L316.229,175.258z M308.094,174.089c-0.026,0-0.045-0.006-0.051-0.009l-0.957-0.541l1.867-1.079l1.025,0.554l-1.857,1.073
					L308.094,174.089z M311.152,172.325c-0.026,0-0.046-0.007-0.052-0.01l-0.958-0.541l1.869-1.079l1.026,0.554l-1.858,1.073
					L311.152,172.325z"/>
			</g>
		</g>
		<g id="Device_1_">
			<path id="Shadow_2_" style="opacity:0.2;" d="M195.634,207.465l-13.844-7.993c-2.08-1.201-2.08-3.148,0-4.349l99.351-57.36
				c2.08-1.201,5.453-1.201,7.533,0l13.845,7.993c2.08,1.201,2.08,3.148,0,4.349l-99.351,57.361
				C201.087,208.666,197.714,208.666,195.634,207.465z"/>
			<g id="Monitor_2_">
				<g id="XMLID_294_">
					<g id="XMLID_308_">
						<path id="XMLID_317_" style="fill:#37474F;" d="M259.926,189.549l15.261-8.824c1.573-0.908,2.359-2.098,2.36-3.289
							c0-1.191,0.007-2.123,0.007-2.123l-14.361-8.151c-0.839-0.484-1.519-1.663-1.519-2.631v-18.816l-26.656,15.403l-0.001,18.816
							c0,0.969,0.68,2.147,1.519,2.631l11.996,6.984C251.678,191.365,256.78,191.365,259.926,189.549z"/>
					</g>
					<path id="XMLID_304_" style="fill:#263238;" d="M241.417,183.266v2.114l-4.885-2.815c-0.833-0.482-1.517-1.658-1.517-2.631
						v-18.814l5.078-2.93c0.105,1.289,0.219,2.623,0.324,3.921l-3.561,2.061v14.7c0,0.973,0.675,2.149,1.518,2.631L241.417,183.266z
						"/>
					<path id="XMLID_303_" style="fill:#455A64;" d="M236.856,178.875c0,0.969,0.68,2.147,1.519,2.631l10.155,5.921
						c3.146,1.816,8.248,1.817,11.394,0.001l15.269-8.823c3.147-1.816,3.147-4.76,0.001-6.577l-10.163-5.925
						c-0.839-0.484-1.519-1.663-1.519-2.631l0-14.702l-26.657,15.403V178.875z"/>
					<path id="XMLID_301_" style="fill:#37474F;" d="M268.126,167.891v-0.002l-3.094-1.786c-0.839-0.484-1.519-1.663-1.519-2.631
						v-14.702l-26.657,15.403v14.703c0,0.969,0.68,2.147,1.519,2.631l3.041,1.756L268.126,167.891z"/>
				</g>
				<path id="XMLID_292_" style="fill:#37474F;" d="M194.055,199.173c0.984,0.568,2.632,0.537,3.68-0.068
					c13.105-7.566,89.985-51.952,103.088-59.516c1.049-0.606,1.898-2.078,1.898-3.289V53.345c0-1.211-0.797-2.653-1.781-3.221
					c-0.984-0.568-2.632-0.537-3.68,0.068l-103.086,59.517c-1.049,0.606-1.899,2.078-1.899,3.289l-0.001,82.954
					C192.274,197.163,193.072,198.606,194.055,199.173z"/>
				<path id="XMLID_282_" style="fill:#455A64;" d="M197.737,199.103l103.087-59.516c1.049-0.606,1.899-2.078,1.899-3.289V53.343
					c0-1.211-0.85-1.702-1.899-1.096l-103.086,59.516c-1.049,0.605-1.899,2.078-1.899,3.289l-0.001,82.954
					C195.838,199.218,196.688,199.708,197.737,199.103z"/>
				<path id="XMLID_281_" style="fill:#FAFAFA;" d="M199.4,186.886l0.001-70.652c0-0.727,0.51-1.61,1.139-1.973l97.479-56.28
					c0.629-0.363,1.139-0.069,1.139,0.658l0.003,70.653c0,0.727-0.51,1.61-1.139,1.973l-97.483,56.278
					C199.91,187.907,199.4,187.613,199.4,186.886z"/>
				<g>
					<path id="XMLID_5735_" style="fill:#455A64;" d="M288.804,71.02l-79.048,45.638c-0.573,0.331-1.038,1.136-1.038,1.798v57.555
						c0,0.662,0.465,0.929,1.039,0.596l79.046-45.635c0.574-0.333,1.039-1.138,1.039-1.8V71.619
						C289.842,70.957,289.377,70.689,288.804,71.02z"/>
					<g id="XMLID_5710_">
						<path id="XMLID_5734_" style="fill:#263238;" d="M217.94,121.327v36.184c0,0.221-0.155,0.489-0.346,0.599l-5.798,3.347
							c-0.191,0.11-0.346,0.021-0.346-0.2v-36.184c0-0.221,0.155-0.489,0.346-0.599l5.798-3.347
							C217.786,121.017,217.94,121.107,217.94,121.327z"/>
						<g id="XMLID_5715_">
							<path id="XMLID_5733_" style="fill:#37474F;" d="M217.135,123.11l-1.914,1.105c-0.143,0.083-0.259,0.284-0.259,0.449l0,2.211
								c0,0.166,0.116,0.233,0.259,0.15l1.914-1.105c0.143-0.082,0.259-0.284,0.259-0.449l0-2.211
								C217.394,123.095,217.278,123.028,217.135,123.11z"/>
							<path id="XMLID_5732_" style="fill:#37474F;" d="M214.173,124.821l-1.914,1.105c-0.143,0.083-0.26,0.284-0.26,0.449l0,2.211
								c0,0.165,0.116,0.232,0.259,0.15l1.914-1.105c0.143-0.082,0.259-0.284,0.259-0.449l0-2.211
								C214.433,124.805,214.317,124.738,214.173,124.821z"/>
							<path id="XMLID_5731_" style="fill:#37474F;" d="M217.135,126.464l-1.914,1.105c-0.143,0.083-0.259,0.284-0.259,0.449
								l0,2.211c0,0.166,0.116,0.233,0.259,0.15l1.914-1.105c0.143-0.083,0.259-0.284,0.259-0.449l0-2.211
								C217.394,126.449,217.278,126.381,217.135,126.464z"/>
							<path id="XMLID_5730_" style="fill:#37474F;" d="M214.173,128.175l-1.914,1.105c-0.143,0.083-0.26,0.284-0.26,0.449l0,2.211
								c0,0.166,0.116,0.232,0.259,0.15l1.914-1.105c0.143-0.083,0.259-0.284,0.259-0.449l0-2.211
								C214.433,128.159,214.317,128.092,214.173,128.175z"/>
							<path id="XMLID_5729_" style="fill:#37474F;" d="M217.135,129.818l-1.914,1.105c-0.143,0.083-0.259,0.284-0.259,0.449
								l0,2.211c0,0.165,0.116,0.233,0.259,0.15l1.914-1.105c0.143-0.083,0.259-0.284,0.259-0.449l0-2.211
								C217.394,129.802,217.278,129.735,217.135,129.818z"/>
							<path id="XMLID_5728_" style="fill:#37474F;" d="M214.173,131.528l-1.914,1.105c-0.143,0.083-0.26,0.284-0.26,0.449l0,2.211
								c0,0.165,0.116,0.232,0.259,0.15l1.914-1.105c0.143-0.083,0.259-0.284,0.259-0.449l0-2.211
								C214.433,131.513,214.317,131.445,214.173,131.528z"/>
							<path id="XMLID_5727_" style="fill:#37474F;" d="M217.135,133.171l-1.914,1.105c-0.143,0.083-0.259,0.284-0.259,0.449
								l0,2.211c0,0.165,0.116,0.232,0.259,0.15l1.914-1.105c0.143-0.083,0.259-0.284,0.259-0.449l0-2.211
								C217.394,133.156,217.278,133.089,217.135,133.171z"/>
							<path id="XMLID_5726_" style="fill:#37474F;" d="M214.173,134.882l-1.914,1.105c-0.143,0.083-0.26,0.284-0.26,0.449l0,2.211
								c0,0.165,0.116,0.232,0.259,0.15l1.914-1.105c0.143-0.082,0.259-0.284,0.259-0.449l0-2.211
								C214.433,134.866,214.317,134.799,214.173,134.882z"/>
							<path id="XMLID_5725_" style="fill:#37474F;" d="M217.135,136.525l-1.914,1.105c-0.143,0.083-0.259,0.284-0.259,0.449
								l0,2.211c0,0.165,0.116,0.233,0.259,0.15l1.914-1.105c0.143-0.083,0.259-0.284,0.259-0.449l0-2.211
								C217.394,136.51,217.278,136.443,217.135,136.525z"/>
							<path id="XMLID_5722_" style="fill:#37474F;" d="M214.173,138.236l-1.914,1.105c-0.143,0.083-0.26,0.284-0.26,0.449l0,2.211
								c0,0.165,0.116,0.232,0.259,0.15l1.914-1.105c0.143-0.083,0.259-0.284,0.259-0.449l0-2.211
								C214.433,138.22,214.317,138.153,214.173,138.236z"/>
							<path id="XMLID_5721_" style="fill:#37474F;" d="M217.135,139.879l-1.914,1.105c-0.143,0.083-0.259,0.284-0.259,0.449
								l0,2.211c0,0.165,0.116,0.233,0.259,0.15l1.914-1.105c0.143-0.083,0.259-0.284,0.259-0.449l0-2.211
								C217.394,139.863,217.278,139.796,217.135,139.879z"/>
							<path id="XMLID_5720_" style="fill:#37474F;" d="M214.173,141.589l-1.914,1.105c-0.143,0.083-0.26,0.284-0.26,0.449l0,2.211
								c0,0.165,0.116,0.232,0.259,0.15l1.914-1.105c0.143-0.083,0.259-0.284,0.259-0.449l0-2.211
								C214.433,141.574,214.317,141.507,214.173,141.589z"/>
							<path id="XMLID_5719_" style="fill:#37474F;" d="M217.135,143.233l-1.914,1.105c-0.143,0.083-0.259,0.284-0.259,0.449
								l0,2.211c0,0.165,0.116,0.232,0.259,0.15l1.914-1.105c0.143-0.082,0.259-0.284,0.259-0.449l0-2.211
								C217.394,143.217,217.278,143.15,217.135,143.233z"/>
							<path id="XMLID_5718_" style="fill:#37474F;" d="M214.173,144.943l-1.914,1.105c-0.143,0.083-0.26,0.284-0.26,0.449l0,2.211
								c0,0.165,0.116,0.232,0.259,0.15l1.914-1.105c0.143-0.083,0.259-0.284,0.259-0.449l0-2.211
								C214.433,144.927,214.317,144.86,214.173,144.943z"/>
							<path id="XMLID_5717_" style="fill:#37474F;" d="M217.135,146.587l-1.914,1.105c-0.143,0.083-0.259,0.284-0.259,0.449
								l0,2.211c0,0.165,0.116,0.232,0.259,0.15l1.914-1.105c0.143-0.083,0.259-0.284,0.259-0.449l0-2.211
								C217.394,146.571,217.278,146.504,217.135,146.587z"/>
							<path id="XMLID_5716_" style="fill:#37474F;" d="M214.173,148.297l-1.914,1.105c-0.143,0.083-0.26,0.284-0.26,0.449l0,2.211
								c0,0.165,0.116,0.232,0.259,0.15l1.914-1.105c0.143-0.083,0.259-0.284,0.259-0.449l0-2.211
								C214.433,148.281,214.317,148.214,214.173,148.297z"/>
						</g>
						<path id="XMLID_5714_" style="fill:#E0E0E0;" d="M217.007,150.937l-2.855,1.648c-0.214,0.123-0.387,0.424-0.387,0.67l0,3.298
							c0,0.247,0.173,0.347,0.387,0.224l2.856-1.648c0.214-0.123,0.387-0.423,0.387-0.67l0-3.298
							C217.394,150.913,217.221,150.813,217.007,150.937z"/>
						<path id="XMLID_5711_" style="fill:#BA68C8;" d="M212.549,156.645l2.343-1.353c0.032-0.015,0.084,0.015,0.088,0.053l0,2.704
							l-2.344,1.353c-0.032,0.015-0.084-0.015-0.087-0.054L212.549,156.645 M212.164,156.223c-0.127,0.146-0.214,0.348-0.214,0.524
							l-0.001,3.298c0,0.247,0.173,0.347,0.387,0.224l2.856-1.648c0.062-0.036,0.121-0.087,0.173-0.147
							c0.127-0.146,0.214-0.348,0.214-0.523l0-3.298c0-0.247-0.173-0.347-0.387-0.224l-2.855,1.648
							C212.275,156.112,212.216,156.163,212.164,156.223L212.164,156.223z"/>
					</g>
					<path id="XMLID_5705_" style="fill:#FAFAFA;" d="M278.001,89.482l-51.435,29.696c-1.087,0.627-1.967,2.153-1.967,3.408v38.101
						c0,1.255,0.881,1.763,1.968,1.135L278,132.107c1.087-0.628,1.968-2.154,1.968-3.409l0.001-38.08
						C279.968,89.363,279.087,88.854,278.001,89.482z"/>
					<g>
						<g>
							<path style="fill:#E0E0E0;" d="M227.376,126.707c-0.157,0-0.31-0.081-0.394-0.227c-0.126-0.218-0.05-0.496,0.167-0.621
								l18.472-10.666c0.218-0.126,0.497-0.052,0.622,0.166c0.125,0.218,0.05,0.496-0.167,0.621l-18.472,10.666
								C227.532,126.687,227.453,126.707,227.376,126.707z"/>
						</g>
						<g>
							<path style="fill:#E0E0E0;" d="M227.376,130.973c-0.157,0-0.31-0.081-0.394-0.227c-0.126-0.218-0.05-0.496,0.167-0.621
								l18.472-10.666c0.218-0.126,0.497-0.051,0.622,0.167c0.125,0.218,0.05,0.496-0.167,0.621l-18.472,10.666
								C227.532,130.953,227.453,130.973,227.376,130.973z"/>
						</g>
						<g>
							<path style="fill:#E0E0E0;" d="M227.376,135.239c-0.157,0-0.31-0.081-0.394-0.227c-0.126-0.218-0.05-0.496,0.167-0.621
								l18.472-10.666c0.218-0.126,0.497-0.051,0.622,0.166c0.125,0.218,0.05,0.496-0.167,0.621l-18.472,10.666
								C227.532,135.22,227.453,135.239,227.376,135.239z"/>
						</g>
						<g>
							<path style="fill:#E0E0E0;" d="M227.376,139.506c-0.157,0-0.31-0.081-0.394-0.227c-0.126-0.218-0.05-0.496,0.167-0.621
								l18.472-10.666c0.218-0.125,0.497-0.052,0.622,0.166c0.125,0.218,0.05,0.496-0.167,0.621l-18.472,10.666
								C227.532,139.486,227.453,139.506,227.376,139.506z"/>
						</g>
						<polygon style="fill:#BA68C8;" points="249.543,113.453 275.406,98.521 275.407,115.586 249.543,130.518 						"/>
						<polygon style="opacity:0.5;fill:#FFFFFF;" points="249.543,113.453 275.406,98.521 275.407,115.586 249.543,130.518 						
							"/>
						<polygon style="fill:#FFFFFF;" points="251.403,127.326 273.598,114.542 268.712,111.121 263.84,116.899 258.495,111.973 
													"/>
						<path style="fill:#FFFFFF;" d="M265.101,107.953c0.59-0.341,1.068-0.065,1.068,0.617s-0.478,1.51-1.068,1.85
							c-0.59,0.341-1.068,0.064-1.068-0.617C264.033,109.122,264.511,108.294,265.101,107.953z"/>
						<polygon style="fill:#BA68C8;" points="227.374,147.583 275.407,119.853 275.406,124.119 227.374,151.849 						"/>
						<g>
							<path style="fill:#E0E0E0;" d="M227.376,143.772c-0.157,0-0.31-0.081-0.394-0.227c-0.126-0.218-0.05-0.496,0.167-0.621
								l18.473-10.666c0.217-0.126,0.496-0.051,0.622,0.167c0.126,0.218,0.05,0.496-0.166,0.621l-18.473,10.666
								C227.532,143.752,227.453,143.772,227.376,143.772z"/>
						</g>
						<g>
							<path style="fill:#E0E0E0;" d="M227.375,156.57c-0.157,0-0.31-0.082-0.394-0.228c-0.126-0.218-0.05-0.496,0.167-0.621
								l48.095-27.694c0.218-0.124,0.495-0.05,0.621,0.167c0.125,0.218,0.05,0.496-0.167,0.621l-48.095,27.694
								C227.53,156.551,227.452,156.57,227.375,156.57z"/>
						</g>
					</g>
					<path id="XMLID_5704_" style="fill:#37474F;" d="M208.719,118.447c0.004-0.66,0.466-1.459,1.037-1.788l79.048-45.639
						c0.573-0.331,1.038-0.063,1.038,0.599v4.422l-81.123,46.837V118.447z"/>
				</g>
				<path id="XMLID_273_" style="fill:#BA68C8;" d="M251.403,161.086c-0.984,0.568-1.782,1.95-1.782,3.086
					c0,1.136,0.798,1.596,1.782,1.028c0.984-0.568,1.782-1.95,1.782-3.086C253.185,160.978,252.387,160.518,251.403,161.086z"/>
				<path style="fill:#263238;" d="M192.835,111.121l3.561,2.052c-0.342,0.596-0.552,1.272-0.561,1.877v73.044v10.148
					c0,1.105,0.702,1.605,1.622,1.237c-1.052,0.465-2.508,0.447-3.403-0.07c-0.982-0.57-1.78-2.009-1.78-3.228v-10.148v-73.036
					C192.273,112.393,192.493,111.718,192.835,111.121z"/>
			</g>
		</g>
		<g id="Mouse_2_">
			<path style="opacity:0.2;" d="M338.757,166.327l-6.914,3.992c-2.179,1.258-5.595,1.078-7.63-0.402l-11.404-8.327
				c-2.035-1.48-1.919-3.703,0.258-4.965l3.467-2.009c2.177-1.262,5.766-1.37,8.015-0.243l14.08,7.634
				C340.879,163.135,340.936,165.069,338.757,166.327z"/>
			<path style="fill:#37474F;" d="M312.62,157.971l7.891,6.169l5.823,4.556c0.565,0.264,1.212,0.41,1.859,0.447
				c0.984,0.055,1.987-0.137,2.761-0.583l6.187-3.572c0,0,0.009,0,0.009-0.009c0.012-0.007,0.024-0.014,0.036-0.02
				c2.171-1.263,2.683-4.197,1.25-6.26c-0.059-0.086-0.12-0.17-0.183-0.253c-1.175-1.585-2.925-2.734-4.975-3.153l-3.134-0.629
				c-5.075-1.03-9.24-1.531-9.722-1.203l-7.754,4.492C312.648,157.953,312.629,157.962,312.62,157.971z"/>
			<path style="fill:#BA68C8;" d="M317.031,161.422l-0.443-0.347l6.958-4.018l-6.089-1.885c0.21-0.121,0.416-0.24,0.616-0.356
				l6.089,1.885l4.149-2.396c0.258,0.048,0.521,0.098,0.787,0.149L317.031,161.422z"/>
			<path style="fill:#263238;" d="M325.65,168.322c-0.009-0.009-0.027-0.018-0.036-0.027c0-0.009-0.009-0.009-0.009-0.009l-5.54-4
				l-7.481-5.404v-0.847c0-0.027,0.009-0.046,0.036-0.064c0.009-0.009,0.027-0.018,0.046-0.018c0.556-0.191,3.8,0.784,7.718,2.342
				l2.597,1.03c0.811,0.319,1.558,0.765,2.214,1.312c1.868,1.54,2.998,3.863,2.998,6.369v0.137
				c-0.647-0.036-1.294-0.182-1.859-0.447L325.65,168.322z"/>
		</g>
		<g id="Palettes_2_">
			<path id="Shadow_41_" style="opacity:0.15;" d="M258.165,222.938c-0.121-0.225-0.362-0.381-0.661-0.428l-47.262-7.311
				l-0.186-0.014c-0.393,0-0.723,0.182-0.86,0.477l-2.044,4.401l-2.53,2.53c-0.072,0.072-0.115,0.16-0.151,0.249l-1.407,0.812
				c-0.238,0.137-0.382,0.37-0.382,0.622c0,0.252,0.142,0.485,0.382,0.624l34.6,19.976c0.197,0.113,0.404,0.137,0.543,0.137
				c0.138,0,0.345-0.024,0.542-0.137l7.167-4.138c0.239-0.138,0.38-0.372,0.38-0.624c0-0.252-0.144-0.485-0.382-0.622l-8.422-4.862
				l9.852,3.284c0.114,0.038,0.237,0.058,0.364,0.058c0.283,0,0.544-0.098,0.715-0.269l5.069-5.068
				c0.173-0.174,0.244-0.415,0.19-0.645c-0.06-0.254-0.258-0.454-0.543-0.549l-11.186-3.729l12.56,1.943l0.182,0.014
				c0.394,0,0.724-0.183,0.86-0.477l2.622-5.651C258.272,223.346,258.266,223.127,258.165,222.938z"/>
			<g id="Palette_3_">
				<g id="XMLID_5673_">
					<g id="XMLID_5680_">
						<path id="XMLID_5703_" style="fill:#F0F0F0;" d="M245.762,238.018c0-0.058-0.038-0.115-0.113-0.159l-34.6-19.976
							c-0.152-0.087-0.397-0.087-0.548,0l-7.167,4.138c-0.076,0.044-0.113,0.101-0.113,0.158c0,0.057,0,1.016,0,1.074
							c0,0.058,0.038,0.115,0.113,0.159l34.6,19.976c0.151,0.087,0.397,0.087,0.548,0l7.166-4.138
							c0.076-0.044,0.113-0.101,0.113-0.158C245.762,239.034,245.762,238.075,245.762,238.018z"/>
						<path id="XMLID_5702_" style="fill:#E0E0E0;" d="M238.203,242.383v1.073c-0.097,0-0.193-0.021-0.268-0.064l-34.604-19.985
							c-0.075-0.043-0.107-0.097-0.107-0.15v-1.073c0,0.064,0.032,0.107,0.107,0.15l34.604,19.975
							C238.01,242.351,238.096,242.383,238.203,242.383z"/>
						<path id="XMLID_5701_" style="fill:#FAFAFA;" d="M211.049,217.883l34.6,19.976c0.151,0.087,0.151,0.229,0,0.317l-7.166,4.138
							c-0.151,0.087-0.397,0.087-0.548,0l-34.6-19.976c-0.151-0.087-0.151-0.229,0-0.316l7.166-4.138
							C210.652,217.796,210.898,217.796,211.049,217.883z"/>
						<g id="XMLID_5681_">
							<polygon id="XMLID_5700_" style="fill:#F28F8F;" points="210.775,219.704 206.489,222.179 210.776,224.654 215.061,222.18 
															"/>
							<polygon id="XMLID_5699_" style="opacity:0.9;fill:#F0F0F0;" points="210.775,219.704 206.489,222.179 210.776,224.654 
								215.061,222.18 							"/>
							<g id="XMLID_5696_">
								<polygon id="XMLID_5698_" style="fill:#F28F8F;" points="221.748,226.04 217.462,228.514 221.749,230.989 226.034,228.515 
																	"/>
								<polygon id="XMLID_5697_" style="opacity:0.6;fill:#F0F0F0;" points="221.748,226.04 217.462,228.514 221.749,230.989 
									226.034,228.515 								"/>
							</g>
							<g id="XMLID_5691_">
								<polygon id="XMLID_5693_" style="fill:#F28F8F;" points="227.234,229.208 222.949,231.682 227.236,234.157 231.521,231.682 
																	"/>
								<polygon id="XMLID_5692_" style="opacity:0.5;fill:#F0F0F0;" points="227.234,229.208 222.949,231.682 227.236,234.157 
									231.521,231.682 								"/>
							</g>
							<g id="XMLID_5688_">
								<polygon id="XMLID_5690_" style="fill:#F28F8F;" points="232.721,232.375 228.436,234.85 232.722,237.324 237.007,234.85 
																	"/>
								<polygon id="XMLID_5689_" style="opacity:0.4;fill:#F0F0F0;" points="232.721,232.375 228.436,234.85 232.722,237.324 
									237.007,234.85 								"/>
							</g>
							<g id="XMLID_5686_">
								<polygon id="XMLID_5687_" style="fill:#F28F8F;" points="238.207,235.543 233.922,238.017 238.209,240.492 242.494,238.018 
																	"/>
							</g>
							<g id="XMLID_5682_">
								<polygon id="XMLID_5684_" style="fill:#F28F8F;" points="216.261,222.872 211.976,225.347 216.262,227.821 220.547,225.347 
																	"/>
								<polygon id="XMLID_5683_" style="opacity:0.8;fill:#F0F0F0;" points="216.261,222.872 211.976,225.347 216.262,227.821 
									220.547,225.347 								"/>
							</g>
						</g>
					</g>
				</g>
				<g id="XMLID_5671_">
					<path id="XMLID_5672_" style="fill:#263238;" d="M211.209,219.122c-0.24,0.139-0.629,0.139-0.869,0
						c-0.24-0.139-0.24-0.363,0-0.502c0.24-0.139,0.629-0.139,0.869,0C211.449,218.758,211.449,218.983,211.209,219.122z"/>
				</g>
			</g>
			<g id="Palette_2_">
				<g id="XMLID_5627_">
					<path id="XMLID_5664_" style="fill:#F0F0F0;" d="M253.166,230.045c-0.001-0.077-0.071-0.151-0.194-0.193l-42.376-14.125
						c-0.186-0.062-0.423-0.025-0.53,0.082L205,220.877c-0.037,0.037-0.053,0.077-0.052,0.117l0.001,1.064
						c-0.003,0.079,0.067,0.157,0.194,0.199l42.376,14.125c0.185,0.062,0.423,0.025,0.529-0.082l5.067-5.068
						c0.036-0.036,0.053-0.076,0.052-0.115C253.164,231.041,253.166,230.083,253.166,230.045z"/>
					<path id="XMLID_5663_" style="fill:#E0E0E0;" d="M247.82,235.321v1.084c-0.097,0.011-0.204,0.011-0.301-0.021l-42.375-14.125
						c-0.129-0.043-0.204-0.118-0.193-0.204v-1.063c0,0.075,0.075,0.15,0.193,0.193l42.375,14.125
						C247.616,235.342,247.723,235.353,247.82,235.321z"/>
					<path id="XMLID_5660_" style="fill:#FAFAFA;" d="M210.597,215.727l42.376,14.125c0.186,0.062,0.249,0.199,0.142,0.306
						l-5.067,5.067c-0.107,0.107-0.344,0.144-0.53,0.082l-42.376-14.125c-0.186-0.062-0.249-0.199-0.142-0.306l5.067-5.067
						C210.174,215.702,210.411,215.665,210.597,215.727z"/>
					<g id="XMLID_5628_">
						<polygon id="XMLID_5659_" style="fill:#BA68C8;" points="211.148,217.528 208.118,220.558 213.368,222.308 216.398,219.278 
													"/>
						<g id="XMLID_5641_">
							<polygon id="XMLID_5643_" style="fill:#BA68C8;" points="224.588,222.007 221.558,225.038 226.807,226.788 229.837,223.758 
															"/>
							<polygon id="XMLID_5642_" style="opacity:0.25;" points="224.588,222.007 221.558,225.038 226.807,226.788 229.837,223.758 
															"/>
						</g>
						<g id="XMLID_5638_">
							<polygon id="XMLID_5640_" style="fill:#BA68C8;" points="231.307,224.247 228.277,227.278 233.527,229.027 236.557,225.997 
															"/>
							<polygon id="XMLID_5639_" style="opacity:0.35;" points="231.307,224.247 228.277,227.278 233.527,229.027 236.557,225.997 
															"/>
						</g>
						<g id="XMLID_5635_">
							<polygon id="XMLID_5637_" style="fill:#BA68C8;" points="238.027,226.487 234.997,229.518 240.247,231.267 243.277,228.237 
															"/>
							<polygon id="XMLID_5636_" style="opacity:0.35;" points="238.027,226.487 234.997,229.518 240.247,231.267 243.277,228.237 
															"/>
						</g>
						<g id="XMLID_5632_">
							<polygon id="XMLID_5634_" style="fill:#BA68C8;" points="244.747,228.727 241.717,231.758 246.967,233.507 249.996,230.477 
															"/>
							<polygon id="XMLID_5633_" style="opacity:0.5;" points="244.747,228.727 241.717,231.758 246.967,233.507 249.996,230.477 
															"/>
						</g>
						<g id="XMLID_5629_">
							<polygon id="XMLID_5631_" style="fill:#BA68C8;" points="217.868,219.768 214.838,222.798 220.088,224.548 223.118,221.518 
															"/>
							<polygon id="XMLID_5630_" style="opacity:0.15;" points="217.868,219.768 214.838,222.798 220.088,224.548 223.118,221.518 
															"/>
						</g>
					</g>
				</g>
				<g id="XMLID_5617_">
					<path id="XMLID_5626_" style="fill:#263238;" d="M211.307,216.9c-0.17,0.17-0.546,0.228-0.84,0.13
						c-0.294-0.098-0.395-0.315-0.225-0.485c0.17-0.17,0.546-0.228,0.84-0.13C211.376,216.513,211.476,216.73,211.307,216.9z"/>
				</g>
			</g>
			<g id="Palette_1_">
				<g id="XMLID_2776_">
					<g id="XMLID_4022_">
						<path id="XMLID_5616_" style="fill:#F0F0F0;" d="M257.709,221.156c-0.003-0.098-0.116-0.186-0.287-0.213l-47.264-7.312
							c-0.207-0.032-0.419,0.039-0.475,0.158l-2.623,5.652c-0.009,0.019-0.013,0.038-0.013,0.057l0,1.075
							c-0.001,0.099,0.114,0.19,0.287,0.217l47.264,7.312c0.207,0.032,0.419-0.039,0.475-0.158l2.623-5.652
							c0.01-0.021,0.014-0.042,0.013-0.062V221.156z"/>
						<path id="XMLID_5613_" style="fill:#E0E0E0;" d="M254.829,227.024v1.063c-0.075,0.011-0.15,0.032-0.236,0.011l-47.259-7.309
							c-0.172-0.021-0.29-0.118-0.29-0.215V219.5c0,0.097,0.118,0.182,0.29,0.215l47.259,7.309
							C254.678,227.035,254.754,227.035,254.829,227.024z"/>
						<path id="XMLID_5612_" style="fill:#FAFAFA;" d="M210.157,213.632l47.264,7.312c0.207,0.032,0.33,0.155,0.274,0.274
							l-2.623,5.652c-0.055,0.119-0.268,0.19-0.475,0.158l-47.264-7.312c-0.207-0.032-0.33-0.155-0.274-0.274l2.623-5.652
							C209.738,213.67,209.95,213.6,210.157,213.632z"/>
						<g id="XMLID_4023_">
							<polygon id="XMLID_5611_" style="fill:#BA68C8;" points="211.497,215.288 209.929,218.668 215.784,219.574 217.353,216.194 
															"/>
							<polygon id="XMLID_5610_" style="opacity:0.9;fill:#FFFFFF;" points="211.497,215.288 209.929,218.668 215.784,219.574 
								217.353,216.194 							"/>
							<g id="XMLID_5607_">
								<polygon id="XMLID_5609_" style="fill:#BA68C8;" points="226.487,217.607 224.919,220.987 230.774,221.893 232.342,218.513 
																	"/>
								<polygon id="XMLID_5608_" style="opacity:0.75;fill:#FFFFFF;" points="226.487,217.607 224.919,220.987 230.774,221.893 
									232.342,218.513 								"/>
							</g>
							<g id="XMLID_4043_">
								<polygon id="XMLID_5606_" style="fill:#BA68C8;" points="233.981,218.766 232.413,222.147 238.269,223.052 239.837,219.673 
																	"/>
								<polygon id="XMLID_4044_" style="opacity:0.7;fill:#FFFFFF;" points="233.981,218.766 232.413,222.147 238.269,223.052 
									239.837,219.673 								"/>
							</g>
							<g id="XMLID_4040_">
								<polygon id="XMLID_4042_" style="fill:#BA68C8;" points="241.476,219.926 239.908,223.306 245.764,224.212 247.332,220.832 
																	"/>
								<polygon id="XMLID_4041_" style="opacity:0.6;fill:#FFFFFF;" points="241.476,219.926 239.908,223.306 245.764,224.212 
									247.332,220.832 								"/>
							</g>
							<g id="XMLID_4038_">
								<polygon id="XMLID_4039_" style="fill:#BA68C8;" points="248.971,221.085 247.403,224.465 253.258,225.371 254.827,221.991 
																	"/>
							</g>
							<g id="XMLID_4035_">
								<polygon id="XMLID_4037_" style="fill:#BA68C8;" points="218.992,216.447 217.424,219.828 223.279,220.733 224.847,217.354 
																	"/>
								<polygon id="XMLID_4036_" style="opacity:0.8;fill:#FFFFFF;" points="218.992,216.447 217.424,219.828 223.279,220.733 
									224.847,217.354 								"/>
							</g>
						</g>
					</g>
				</g>
				<g id="XMLID_2743_">
					<path id="XMLID_2775_" style="fill:#263238;" d="M211.368,214.658c-0.088,0.189-0.425,0.302-0.753,0.251
						c-0.328-0.051-0.523-0.245-0.435-0.435c0.088-0.189,0.425-0.302,0.753-0.251C211.262,214.274,211.456,214.469,211.368,214.658z
						"/>
				</g>
			</g>
		</g>
	</g>
</g>
<g id="Furniture">
	<g id="Cabinet">
		<g>
			<g>
				<polygon style="fill:#455A64;" points="103.459,405.853 106.343,420.155 109.145,421.773 111.923,420.169 114.83,405.853 
					109.144,402.57 				"/>
				<polygon style="fill:#37474F;" points="109.145,421.773 109.145,409.135 103.459,405.853 106.343,420.155 				"/>
			</g>
			<polygon style="opacity:0.2;" points="103.46,405.853 105.322,415.089 109.146,417.297 112.953,415.098 114.83,405.853 
				109.144,402.57 			"/>
		</g>
		<g>
			<g>
				<polygon style="fill:#455A64;" points="193.848,353.667 196.731,367.969 199.533,369.587 202.311,367.984 205.219,353.667 
					199.533,350.384 				"/>
				<polygon style="fill:#37474F;" points="199.533,369.587 199.533,356.95 193.848,353.667 196.731,367.969 				"/>
			</g>
			<polygon style="opacity:0.2;" points="193.848,353.667 195.71,362.903 199.534,365.111 203.341,362.913 205.219,353.667 
				199.533,350.384 			"/>
		</g>
		<g>
			<g>
				<polygon style="fill:#455A64;" points="41.347,369.993 44.23,384.295 47.033,385.913 49.811,384.309 52.718,369.993 
					47.032,366.71 				"/>
				<polygon style="fill:#37474F;" points="47.033,385.913 47.032,373.275 41.347,369.993 44.23,384.295 				"/>
			</g>
			<polygon style="opacity:0.2;" points="41.347,369.993 43.209,379.229 47.033,381.437 50.841,379.238 52.718,369.993 
				47.032,366.71 			"/>
		</g>
		<g id="Cabinet_2_">
			<g id="XMLID_14833_">
				<polygon id="XMLID_14851_" style="fill:#263238;" points="109.145,412.599 40.822,373.153 40.821,270.95 109.144,310.396 				
					"/>
				<polygon id="XMLID_14849_" style="fill:#37474F;" points="109.144,310.396 208.521,253.02 208.523,355.224 109.145,412.599 				
					"/>
				<polygon id="XMLID_445_" style="fill:#455A64;" points="208.521,253.02 109.144,310.396 40.821,270.95 140.199,213.575 				"/>
			</g>
			<g id="XMLID_353_">
				<g id="XMLID_443_">
					<polygon id="XMLID_444_" style="fill:#263238;" points="118.278,360.272 199.388,313.443 199.385,346.042 201.066,347.013 
						119.956,393.841 118.276,392.87 					"/>
				</g>
				<g id="XMLID_429_">
					<polygon id="XMLID_441_" style="fill:#455A64;" points="119.958,361.242 201.068,314.414 201.066,347.013 119.956,393.841 
											"/>
				</g>
				<g id="XMLID_375_">
					<path id="XMLID_380_" style="fill:#263238;" d="M157.405,348.2l12.426-7.174c1.613-0.932,2.921-0.507,2.921,0.95
						c0,1.456-1.308,3.392-2.921,4.323l-12.427,7.174c-1.613,0.932-2.921,0.506-2.92-0.95
						C154.484,351.067,155.792,349.131,157.405,348.2z"/>
				</g>
			</g>
			<g id="XMLID_314_">
				<g id="XMLID_341_">
					<polygon id="XMLID_342_" style="fill:#263238;" points="118.278,317.136 199.388,270.307 199.385,302.906 201.066,303.878 
						119.956,350.705 118.276,349.734 					"/>
				</g>
				<g id="XMLID_325_">
					<polygon id="XMLID_340_" style="fill:#455A64;" points="119.958,318.107 201.068,271.278 201.066,303.878 119.956,350.705 
											"/>
				</g>
				<g id="XMLID_14835_">
					<path id="XMLID_315_" style="fill:#263238;" d="M157.405,305.064l12.426-7.174c1.613-0.932,2.921-0.506,2.921,0.95
						c0,1.457-1.308,3.392-2.921,4.324l-12.427,7.174c-1.613,0.931-2.921,0.506-2.92-0.95
						C154.484,307.931,155.792,305.995,157.405,305.064z"/>
				</g>
			</g>
		</g>
	</g>
</g>
<g id="Printer_1_">
	<g id="Printer">
		<g>
			<polygon style="fill:#263238;" points="54.858,268.248 108.93,299.466 193.042,250.904 138.97,219.686 			"/>
			<path style="fill:#263238;" d="M108.93,299.466l-54.072-31.219l0,2.759c0,1.017,0.721,2.265,1.601,2.773l50.87,29.37
				c0.991,0.572,2.212,0.572,3.202,0l0,0l-1.601-0.924V299.466z"/>
			<path style="fill:#37474F;" d="M193.042,250.904l0,2.759c0,1.021-0.717,2.263-1.601,2.773l-80.91,46.713
				c-0.884,0.51-1.601,0.097-1.601-0.924v-2.759L193.042,250.904z"/>
		</g>
		<g>
			<path style="fill:#BA68C8;" d="M191.413,249.508c0.925-0.534,1.675-1.833,1.675-2.901l-0.046-8.943l-53.425-30.845l-14.137,8.161
				l0.046,10.877l53.426,30.845L191.413,249.508z"/>
			<path style="opacity:0.7;fill:#FFFFFF;" d="M191.413,249.508c0.925-0.534,1.675-1.833,1.675-2.901l-0.046-8.943l-53.425-30.845
				l-14.137,8.161l0.046,10.877l53.426,30.845L191.413,249.508z"/>
			<polygon style="fill:#BA68C8;" points="125.481,214.98 125.526,225.858 178.952,256.703 178.906,245.825 			"/>
			<polygon style="opacity:0.3;" points="125.481,214.98 125.526,225.858 178.952,256.703 178.906,245.825 			"/>
			<polygon style="fill:#BA68C8;" points="125.481,214.98 139.617,206.819 193.042,237.664 178.906,245.825 			"/>
			<polygon style="opacity:0.15;" points="125.481,214.98 139.617,206.819 193.042,237.664 178.906,245.825 			"/>
		</g>
		<g>
			<polygon style="fill:#BA68C8;" points="61.097,268.5 95.666,288.458 95.666,281.201 61.097,261.242 			"/>
			<polygon style="opacity:0.15;" points="61.097,268.5 95.666,288.458 95.666,281.201 61.097,261.242 			"/>
			<path style="fill:#BA68C8;" d="M109.911,296.564l65.789-37.983c0.925-0.534,1.675-1.833,1.675-2.901l0-8.953l-53.426-30.845
				l-69.137,39.917l-0.001,8.952c0,1.068,0.75,2.367,1.675,2.901l4.611,2.662l0-5.443l34.569,19.958l0,5.444l10.895,6.29
				C107.486,297.098,108.986,297.098,109.911,296.564z"/>
			<path style="opacity:0.5;fill:#FFFFFF;" d="M109.911,296.564l65.789-37.983c0.925-0.534,1.675-1.833,1.675-2.901l0-8.953
				l-53.426-30.845l-69.137,39.917l-0.001,8.952c0,1.068,0.75,2.367,1.675,2.901l4.611,2.662l0-5.443l34.569,19.958l0,5.444
				l10.895,6.29C107.486,297.098,108.986,297.098,109.911,296.564z"/>
			<polygon style="fill:#BA68C8;" points="108.236,286.644 177.375,246.727 123.95,215.882 54.812,255.799 			"/>
			<polygon style="opacity:0.15;" points="108.236,286.644 177.375,246.727 123.95,215.882 54.812,255.799 			"/>
			<path style="fill:#BA68C8;" d="M177.375,246.727v10.887l-67.464,38.95c-0.921,0.532-1.675,0.097-1.675-0.967v-8.952
				L177.375,246.727z"/>
			<path style="opacity:0.7;fill:#FFFFFF;" d="M177.375,246.727v10.887l-67.464,38.95c-0.921,0.532-1.675,0.097-1.675-0.967v-8.952
				L177.375,246.727z"/>
			<polygon style="fill:#BA68C8;" points="61.097,270.314 62.668,269.407 62.668,265.778 61.097,264.871 			"/>
			<polygon style="opacity:0.35;" points="61.097,270.314 62.668,269.407 62.668,265.778 61.097,264.871 			"/>
			<path style="fill:#455A64;" d="M116.094,285.737c0.868-0.501,1.571-0.095,1.571,0.907c0,1.002-0.703,2.221-1.571,2.722
				c-0.868,0.501-1.571,0.095-1.571-0.907C114.523,287.456,115.226,286.238,116.094,285.737z"/>
			<path style="fill:#455A64;" d="M171.089,253.985c0,0,0,0.812,0,1.814c0,1.002-1.5,2.68-3.35,3.748l-40.44,23.348
				c-1.85,1.068-3.35,1.122-3.35,0.12v-1.814L171.089,253.985z"/>
		</g>
		<g>
			<path style="fill:#37474F;" d="M108.236,278.704l0,5.439l-53.425-30.845l0-23.588l37.709,21.771
				C102.246,257.097,108.237,267.474,108.236,278.704z"/>
			<path style="fill:#455A64;" d="M177.373,202.491l-37.708-21.771l-9.431,5.446l-75.424,43.542l37.708,21.771
				c9.725,5.617,15.721,15.992,15.721,27.225v5.439l75.424-43.542v-0.008l9.423-5.439v-5.439
				C193.086,218.483,187.098,208.108,177.373,202.491z"/>
			<path style="fill:#BA68C8;" d="M180.515,236.971c0.001-11.23-5.99-21.607-15.716-27.222l-37.709-21.771l-56.568,32.659
				l37.709,21.771c9.726,5.615,15.716,15.992,15.716,27.222L180.515,236.971z"/>
			<path style="opacity:0.5;fill:#FFFFFF;" d="M180.515,236.971c0.001-11.23-5.99-21.607-15.716-27.222l-37.709-21.771
				l-56.568,32.659l37.709,21.771c9.726,5.615,15.716,15.992,15.716,27.222L180.515,236.971z"/>
			<path style="fill:#FAFAFA;" d="M120.804,217.008c-3.471,2.004-3.471,5.254,0,7.258c3.471,2.004,9.099,2.004,12.571,0
				c3.471-2.004,3.471-5.253,0-7.257C129.904,215.004,124.276,215.004,120.804,217.008z"/>
		</g>
		<g>
			<polygon style="fill:#BA68C8;" points="118.091,266.191 188.296,225.659 188.296,232.291 118.091,272.824 			"/>
			<polygon style="fill:#263238;" points="120.9,266.266 120.9,269.507 185.488,232.217 185.488,228.975 			"/>
			<polygon style="fill:#BA68C8;" points="118.091,266.191 116.67,265.366 186.875,224.834 188.296,225.659 			"/>
			<polygon style="opacity:0.15;" points="118.091,266.191 116.67,265.366 186.875,224.834 188.296,225.659 			"/>
			<polygon style="fill:#BA68C8;" points="116.67,265.366 118.091,266.191 118.091,272.824 116.671,272 			"/>
			<polygon style="opacity:0.3;" points="116.67,265.366 118.091,266.191 118.091,272.824 116.671,272 			"/>
		</g>
		<g>
			<polygon id="XMLID_2168_" style="fill:#263238;" points="69.904,229.112 140.018,188.631 143.45,190.619 73.346,231.1 			"/>
			<polygon id="XMLID_654_" style="fill:#37474F;" points="71.529,230.068 61.456,185.522 131.57,145.042 141.644,189.588 			"/>
			<polygon id="XMLID_620_" style="fill:#263238;" points="61.456,185.522 59.831,184.566 69.904,229.112 71.529,230.068 			"/>
			<polygon id="XMLID_268_" style="fill:#455A64;" points="59.831,184.566 61.456,185.522 131.57,145.042 129.946,144.085 			"/>
		</g>
		<g>
			<polygon id="XMLID_265_" style="fill:#E0E0E0;" points="73.562,228.893 61.388,175.023 125.603,137.95 137.777,191.821 			"/>
			<polygon id="XMLID_264_" style="fill:#FAFAFA;" points="75.348,229.941 63.174,176.07 127.388,138.997 139.563,192.868 			"/>
			<polygon id="XMLID_262_" style="fill:#E0E0E0;" points="63.174,176.07 61.388,175.023 73.978,230.735 75.348,229.941 			"/>
			<polygon id="XMLID_260_" style="fill:#EBEBEB;" points="61.388,175.023 63.174,176.07 127.388,138.997 125.603,137.95 			"/>
		</g>
		<g>
			<g>
				<path style="fill:#263238;" d="M109.365,248.615v-0.548c0.001-0.212-0.139-0.425-0.42-0.587l-1.143-0.66
					c-0.56-0.323-1.468-0.323-2.029,0l-4.314,2.491c-0.282,0.163-0.421,0.376-0.42,0.589h-0.001v0.555h0.001
					c0.004,0.209,0.142,0.418,0.419,0.578l1.143,0.66c0.56,0.323,1.468,0.323,2.028,0l4.315-2.491
					c0.278-0.161,0.418-0.371,0.42-0.582h0v-0.002C109.365,248.617,109.365,248.616,109.365,248.615z"/>
				<path style="fill:#37474F;" d="M102.601,251.142l-1.143-0.66c-0.56-0.323-0.56-0.848,0-1.171l4.315-2.491
					c0.56-0.324,1.469-0.324,2.029,0l1.144,0.66c0.56,0.323,0.56,0.848,0,1.171l-4.315,2.491
					C104.07,251.466,103.161,251.466,102.601,251.142z"/>
				<g>
					<g>
						<path style="fill:#FAFAFA;" d="M103.677,250.682c-0.313,0-0.626-0.069-0.864-0.205c-0.198-0.115-0.326-0.263-0.369-0.43
							c-0.034-0.131-0.013-0.265,0.06-0.389c0.026-0.046,0.082-0.061,0.127-0.033c0.045,0.026,0.059,0.084,0.033,0.127
							c-0.048,0.081-0.061,0.164-0.04,0.246c0.031,0.117,0.127,0.226,0.282,0.315c0.425,0.246,1.118,0.245,1.541,0
							c0.188-0.108,0.292-0.247,0.292-0.391c0-0.143-0.104-0.283-0.292-0.391c-0.292-0.169-0.737-0.227-1.13-0.149
							c-0.061,0.007-0.1-0.023-0.11-0.073c-0.01-0.051,0.022-0.1,0.073-0.11c0.445-0.087,0.926-0.023,1.26,0.169
							c0.248,0.143,0.385,0.339,0.385,0.552c0,0.213-0.137,0.409-0.385,0.553C104.302,250.613,103.99,250.682,103.677,250.682z"/>
					</g>
					<g>
						<path style="fill:#FAFAFA;" d="M103.718,250.04c-0.016,0-0.032-0.004-0.046-0.012l-1.064-0.614
							c-0.045-0.026-0.059-0.083-0.034-0.127c0.026-0.046,0.082-0.061,0.127-0.035l1.064,0.614c0.045,0.026,0.06,0.083,0.035,0.127
							C103.781,250.023,103.75,250.04,103.718,250.04z"/>
					</g>
				</g>
			</g>
			<g>
				<path style="fill:#263238;" d="M96.928,249.929l9.478-5.494c0.289-0.168,0.289-0.439-0.001-0.605l-5.5-3.176
					c-0.289-0.167-0.757-0.167-1.046,0.001l-9.478,5.495c-0.289,0.167-0.289,0.438,0,0.605l5.5,3.175
					C96.171,250.097,96.639,250.097,96.928,249.929z"/>
				<path style="fill:#BA68C8;" d="M100.906,241.44c-0.289-0.167-0.758-0.166-1.046,0.001l-9.322,5.404l5.345,3.086
					c0.289,0.167,0.757,0.167,1.046-0.001l9.322-5.404L100.906,241.44z"/>
				<g style="opacity:0.4;">
					<path d="M93.657,247.095c0.532-0.307,1.197-0.331,1.659-0.064c0.497,0.287,0.476,0.683-0.056,0.99l-0.458,0.265l0.613,0.354
						l-0.406,0.234l-2.215-1.279L93.657,247.095z M94.626,248.184l0.371-0.214c0.36-0.208,0.325-0.45-0.102-0.697
						c-0.389-0.224-0.791-0.234-1.151-0.026l-0.371,0.214L94.626,248.184z"/>
					<path d="M94.893,246.382l0.917-0.53c0.472-0.273,1.057-0.323,1.441-0.101c0.333,0.192,0.354,0.458,0.084,0.719
						c0.148-0.029,0.35-0.028,0.438-0.022l1.084,0.085l-0.245,0.327l-1.043-0.117c-0.402-0.038-0.581-0.057-0.829,0.087
						l-0.126,0.073l0.903,0.521l-0.409,0.237L94.893,246.382z M95.478,246.246l0.963,0.556l0.465-0.269
						c0.259-0.149,0.228-0.365-0.07-0.537c-0.301-0.174-0.619-0.176-0.91-0.008L95.478,246.246z"/>
					<path d="M97.435,244.914l2.215,1.279l-0.406,0.235l-2.215-1.279L97.435,244.914z"/>
					<path d="M98.223,244.46l2.697,0.257l0.095,0.01l0.004-0.002l-0.668-0.386c-0.298-0.172-0.85-0.422-1.018-0.519l0.29-0.168
						l2.215,1.279l-0.28,0.162l-2.75-0.262l-0.147-0.02l-0.003,0.002l0.735,0.424l0.959,0.553l-0.266,0.154
						c-0.168-0.098-0.619-0.398-0.917-0.57l-1.263-0.73L98.223,244.46z"/>
					<path d="M101.81,242.388l0.224,0.129c-0.147,0.085-0.567,0.271-0.777,0.392l2.04,1.178l-0.409,0.236l-2.04-1.177
						c-0.21,0.121-0.532,0.363-0.679,0.448l-0.224-0.129L101.81,242.388z"/>
				</g>
			</g>
		</g>
		<g>
			<path style="fill:#E0E0E0;" d="M139.158,334.845l-0.003-39.131c0-4.576-0.926-9.008-2.648-13.087
				c-0.546-1.293-1.168-2.544-1.867-3.761c-2.91-5.033-7.12-9.319-12.333-12.326v1.607c5.89,3.599,10.394,8.963,12.983,15.179
				c1.611,3.871,2.482,8.075,2.482,12.388l0.001,9.08l0.003,30.051c0,12.485,6.72,24.127,17.539,30.377l0.691,0.396v-1.599
				C145.581,358.005,139.158,346.881,139.158,334.845z"/>
			<path id="XMLID_1238_" style="fill:#FAFAFA;" d="M122.308,266.541c5.213,3.007,9.423,7.293,12.333,12.326
				c0.698,1.217,1.32,2.468,1.867,3.761c1.721,4.079,2.648,8.51,2.648,13.087l0.003,39.131c0,12.036,6.422,23.159,16.848,29.174
				l61.78-35.649c-10.425-6.022-16.848-17.145-16.848-29.181l-0.003-39.124c0-6.015-1.604-11.808-4.514-16.848
				c-2.911-5.04-7.121-9.326-12.333-12.333L122.308,266.541z"/>
			<g>
				<path style="opacity:0.4;" d="M134.625,267.815c-0.119,0-0.236-0.062-0.299-0.173c-0.096-0.165-0.039-0.377,0.126-0.472
					l50.251-29.007c0.165-0.096,0.377-0.039,0.472,0.126c0.096,0.165,0.039,0.377-0.126,0.472l-50.251,29.007
					C134.743,267.8,134.684,267.815,134.625,267.815z"/>
				<g>
					<path style="opacity:0.4;" d="M136.706,270.062c-0.119,0-0.236-0.062-0.299-0.173c-0.096-0.165-0.039-0.377,0.126-0.472
						l50.329-29.051c0.165-0.096,0.377-0.04,0.472,0.126c0.096,0.165,0.039,0.377-0.126,0.472l-50.329,29.051
						C136.824,270.047,136.765,270.062,136.706,270.062z"/>
					<path style="opacity:0.4;" d="M138.64,272.857c-0.119,0-0.235-0.062-0.299-0.173c-0.095-0.166-0.039-0.377,0.126-0.472
						l50.329-29.051c0.165-0.096,0.377-0.039,0.472,0.126c0.095,0.166,0.039,0.377-0.126,0.472l-50.329,29.051
						C138.758,272.842,138.699,272.857,138.64,272.857z"/>
					<path style="opacity:0.4;" d="M140.319,275.795c-0.119,0-0.235-0.062-0.299-0.173c-0.095-0.166-0.039-0.377,0.126-0.472
						l50.329-29.051c0.165-0.096,0.377-0.039,0.472,0.126c0.095,0.166,0.039,0.377-0.126,0.472l-50.329,29.051
						C140.437,275.78,140.378,275.795,140.319,275.795z"/>
					<path style="opacity:0.4;" d="M141.743,278.876c-0.119,0-0.235-0.062-0.299-0.173c-0.095-0.166-0.039-0.377,0.126-0.472
						l50.329-29.051c0.165-0.096,0.377-0.039,0.472,0.126c0.095,0.166,0.039,0.377-0.126,0.472l-50.329,29.051
						C141.861,278.861,141.801,278.876,141.743,278.876z"/>
					<path style="opacity:0.4;" d="M142.91,282.101c-0.119,0-0.235-0.062-0.299-0.173c-0.096-0.166-0.039-0.377,0.126-0.472
						l50.329-29.051c0.165-0.096,0.377-0.039,0.472,0.126c0.095,0.166,0.039,0.377-0.126,0.472l-50.329,29.051
						C143.028,282.086,142.969,282.101,142.91,282.101z"/>
					<path style="opacity:0.4;" d="M143.821,285.47c-0.119,0-0.235-0.062-0.299-0.173c-0.096-0.166-0.039-0.377,0.126-0.472
						l50.329-29.051c0.165-0.096,0.377-0.039,0.472,0.126c0.095,0.166,0.039,0.377-0.126,0.472l-50.329,29.051
						C143.939,285.456,143.88,285.47,143.821,285.47z"/>
					<path style="opacity:0.4;" d="M144.474,288.984c-0.119,0-0.235-0.062-0.299-0.173c-0.096-0.166-0.039-0.377,0.126-0.472
						l50.329-29.051c0.165-0.096,0.377-0.039,0.472,0.126c0.095,0.166,0.039,0.377-0.126,0.472l-50.329,29.051
						C144.592,288.969,144.533,288.984,144.474,288.984z"/>
					<path style="opacity:0.4;" d="M144.869,292.642c-0.119,0-0.235-0.062-0.299-0.173c-0.095-0.166-0.039-0.377,0.126-0.472
						l50.329-29.051c0.165-0.096,0.377-0.04,0.472,0.126c0.095,0.166,0.039,0.377-0.126,0.472l-50.329,29.051
						C144.987,292.627,144.928,292.642,144.869,292.642z"/>
					<path style="opacity:0.4;" d="M145.005,296.445c-0.119,0-0.235-0.062-0.299-0.173c-0.096-0.166-0.039-0.377,0.126-0.472
						l50.329-29.051c0.165-0.096,0.377-0.039,0.472,0.126c0.095,0.166,0.039,0.377-0.126,0.472l-50.329,29.051
						C145.124,296.43,145.064,296.445,145.005,296.445z"/>
					<path style="opacity:0.4;" d="M144.882,300.393c-0.119,0-0.236-0.062-0.299-0.173c-0.096-0.165-0.039-0.377,0.126-0.472
						l50.329-29.051c0.165-0.096,0.377-0.04,0.472,0.126c0.096,0.165,0.039,0.377-0.126,0.472l-50.329,29.051
						C145,300.379,144.941,300.393,144.882,300.393z"/>
				</g>
				<g>
					<g>
						<path style="opacity:0.4;" d="M146.263,339.57c-0.169,0-0.334-0.088-0.425-0.245c-0.135-0.234-0.055-0.534,0.18-0.67
							l20.593-11.885c0.237-0.135,0.535-0.055,0.669,0.179c0.136,0.234,0.055,0.534-0.179,0.67l-20.593,11.885
							C146.43,339.548,146.346,339.57,146.263,339.57z"/>
					</g>
					<g>
						<path style="opacity:0.4;" d="M147.212,342.519c-0.169,0-0.334-0.088-0.425-0.245c-0.136-0.234-0.055-0.534,0.179-0.67
							l20.593-11.885c0.237-0.135,0.534-0.056,0.67,0.179c0.135,0.234,0.055,0.534-0.18,0.67l-20.593,11.885
							C147.378,342.497,147.295,342.519,147.212,342.519z"/>
					</g>
				</g>
				<g>
					<g>
						<path style="opacity:0.4;" d="M175.599,323.616c-0.17,0-0.334-0.088-0.425-0.245c-0.135-0.234-0.055-0.534,0.18-0.67
							l20.593-11.885c0.237-0.135,0.535-0.055,0.669,0.179c0.136,0.234,0.055,0.534-0.179,0.67l-20.593,11.885
							C175.765,323.594,175.682,323.616,175.599,323.616z"/>
					</g>
					<g>
						<path style="opacity:0.4;" d="M176.548,326.565c-0.17,0-0.334-0.088-0.425-0.245c-0.135-0.234-0.055-0.534,0.18-0.67
							l20.593-11.885c0.237-0.135,0.535-0.055,0.669,0.179c0.136,0.234,0.055,0.534-0.179,0.67l-20.593,11.885
							C176.715,326.543,176.631,326.565,176.548,326.565z"/>
					</g>
				</g>
				<path style="fill:#BA68C8;" d="M152.864,345.861l46.949-27.095c1.653-0.954,3.695-0.532,4.703,0.843
					c1.009,1.375,0.596,3.177-1.057,4.131l-46.965,27.104c-1.653,0.954-3.928,0.704-4.932-0.674
					C150.558,348.792,151.211,346.815,152.864,345.861z"/>
				<g>
					<g>
						<path style="fill:#E0E0E0;" d="M145.129,306.447c-0.157,0-0.31-0.082-0.394-0.227c-0.126-0.218-0.05-0.496,0.166-0.622
							l20.826-12.025c0.218-0.125,0.496-0.049,0.622,0.167c0.126,0.218,0.05,0.496-0.166,0.622l-20.826,12.025
							C145.286,306.428,145.207,306.447,145.129,306.447z"/>
					</g>
					<g>
						<path style="fill:#E0E0E0;" d="M145.129,310.713c-0.157,0-0.31-0.082-0.394-0.227c-0.126-0.218-0.05-0.496,0.166-0.622
							l20.826-12.024c0.218-0.124,0.496-0.049,0.622,0.167c0.126,0.218,0.05,0.496-0.166,0.622l-20.826,12.024
							C145.286,310.693,145.207,310.713,145.129,310.713z"/>
					</g>
					<g>
						<path style="fill:#E0E0E0;" d="M145.129,314.979c-0.157,0-0.31-0.082-0.394-0.227c-0.126-0.218-0.05-0.496,0.166-0.622
							l20.826-12.024c0.218-0.125,0.496-0.049,0.622,0.167c0.126,0.218,0.05,0.496-0.166,0.622l-20.826,12.025
							C145.286,314.96,145.207,314.979,145.129,314.979z"/>
					</g>
					<g>
						<path style="fill:#E0E0E0;" d="M145.129,319.245c-0.157,0-0.31-0.082-0.394-0.227c-0.126-0.218-0.05-0.496,0.166-0.622
							l20.826-12.024c0.218-0.124,0.496-0.049,0.622,0.167c0.126,0.218,0.05,0.496-0.166,0.622l-20.826,12.024
							C145.286,319.226,145.207,319.245,145.129,319.245z"/>
					</g>
					<polygon style="fill:#BA68C8;" points="169.65,291.835 195.513,276.903 195.513,293.968 169.65,308.9 					"/>
					<polygon style="opacity:0.5;fill:#FFFFFF;" points="169.65,291.835 195.513,276.903 195.513,293.968 169.65,308.9 					"/>
					<polygon style="fill:#FFFFFF;" points="171.51,305.707 193.705,292.924 188.818,289.503 183.947,295.281 178.602,290.355 					
						"/>
					<path style="fill:#FFFFFF;" d="M185.208,286.335c0.59-0.341,1.068-0.065,1.068,0.617c0,0.681-0.478,1.51-1.068,1.85
						c-0.59,0.341-1.068,0.064-1.068-0.617C184.14,287.504,184.618,286.676,185.208,286.335z"/>
					<polygon style="fill:#BA68C8;" points="145.129,327.323 195.513,298.235 195.512,302.501 145.129,331.589 					"/>
					<g>
						<path style="fill:#E0E0E0;" d="M145.13,323.512c-0.157,0-0.31-0.082-0.394-0.227c-0.126-0.218-0.05-0.496,0.166-0.622
							l20.825-12.025c0.218-0.125,0.496-0.05,0.622,0.166c0.126,0.218,0.05,0.496-0.166,0.622l-20.825,12.024
							C145.287,323.492,145.208,323.512,145.13,323.512z"/>
					</g>
					<g>
						<path style="fill:#E0E0E0;" d="M145.128,336.31c-0.157,0-0.31-0.082-0.394-0.228c-0.126-0.218-0.05-0.496,0.167-0.621
							l50.448-29.052c0.217-0.125,0.495-0.05,0.621,0.167c0.126,0.218,0.05,0.496-0.167,0.621l-50.448,29.052
							C145.284,336.291,145.206,336.31,145.128,336.31z"/>
					</g>
				</g>
			</g>
			<polygon id="XMLID_261_" style="fill:#F0F0F0;" points="156.006,365.618 217.786,329.97 217.786,328.371 156.006,364.019 			"/>
		</g>
	</g>
</g>
<g id="Sheets_2_">
	<g id="Sheets_3_">
		<g id="Sheets">
			<g id="Character_22_">
				<g>
					<g>
						<g>
							<polygon style="fill:#FAFAFA;" points="333.977,400.955 261.882,442.656 261.882,398.437 333.978,356.735 							"/>
						</g>
						<polygon style="opacity:0.1;" points="265.453,396.372 265.453,407.371 333.977,367.735 333.978,356.735 						"/>
						<g>
							<polygon style="fill:#F0F0F0;" points="211.906,413.803 261.882,442.656 261.882,398.437 211.904,369.582 							"/>
						</g>
						<polygon style="fill:#FFFFFF;" points="333.978,356.735 283.999,327.882 211.904,369.582 261.882,398.437 						"/>
						<polygon style="opacity:0.1;" points="221.013,370.715 265.453,396.372 333.978,356.735 289.538,331.08 						"/>
					</g>
				</g>
			</g>
			<polygon style="opacity:0.1;" points="296.406,393.297 261.883,413.229 241.167,401.27 261.883,414.464 			"/>
			<polygon style="opacity:0.1;" points="317.121,392.478 261.883,424.37 220.453,400.452 261.883,425.576 			"/>
			<path style="opacity:0.1;" d="M327.042,373.143c0,0,1.142,6.45,0.569,9.715c0,0-9.041-0.223-24.299,3.986L327.042,373.143z"/>
			<polygon style="fill:#FFFFFF;" points="327.042,373.143 303.311,386.843 329.568,379.264 			"/>
			<path style="opacity:0.1;" d="M296.406,411.365l-26.016,23.919c0,0-0.722-3.288-5.716-5.599L296.406,411.365z"/>
			<polygon style="fill:#FFFFFF;" points="296.406,411.365 271.974,431.938 264.674,429.686 			"/>
			<path style="opacity:0.1;" d="M220.232,387.167c0.136-0.21,0.221-0.324,0.221-0.324l16.441,9.492l-18.505-1.519
				C217.751,391.381,219.581,388.173,220.232,387.167z"/>
			<polygon style="fill:#FAFAFA;" points="236.893,396.335 220.453,386.843 214.979,389.73 			"/>
			<g style="opacity:0.3;">
				<g>
					<path style="fill:#455A64;" d="M321.275,359.81c0.219,0,0.433-0.114,0.553-0.318c0.176-0.305,0.071-0.695-0.234-0.871
						l-41.429-23.92c-0.304-0.173-0.694-0.071-0.872,0.233c-0.176,0.305-0.071,0.695,0.234,0.871l41.429,23.92
						C321.056,359.783,321.167,359.81,321.275,359.81z"/>
				</g>
				<g>
					<path style="fill:#455A64;" d="M314.371,363.796c0.219,0,0.433-0.115,0.553-0.319c0.176-0.305,0.071-0.695-0.234-0.871
						l-41.429-23.919c-0.302-0.174-0.694-0.072-0.871,0.233c-0.176,0.305-0.072,0.695,0.234,0.871l41.429,23.919
						C314.152,363.769,314.263,363.796,314.371,363.796z"/>
				</g>
				<g>
					<path style="fill:#455A64;" d="M307.465,367.783c0.219,0,0.433-0.114,0.553-0.319c0.176-0.305,0.071-0.695-0.234-0.871
						l-41.429-23.919c-0.304-0.176-0.694-0.071-0.872,0.233c-0.176,0.305-0.071,0.695,0.234,0.871l41.429,23.919
						C307.246,367.755,307.358,367.783,307.465,367.783z"/>
				</g>
				<g>
					<path style="fill:#455A64;" d="M300.56,371.77c0.219,0,0.433-0.114,0.553-0.319c0.176-0.305,0.071-0.695-0.234-0.871
						l-41.427-23.919c-0.297-0.175-0.691-0.074-0.872,0.233c-0.176,0.305-0.071,0.695,0.234,0.871l41.427,23.92
						C300.34,371.743,300.452,371.77,300.56,371.77z"/>
				</g>
				<g>
					<path style="fill:#455A64;" d="M293.656,375.757c0.219,0,0.433-0.115,0.553-0.319c0.176-0.305,0.071-0.695-0.234-0.871
						l-41.429-23.919c-0.302-0.175-0.694-0.071-0.872,0.233c-0.176,0.305-0.071,0.695,0.234,0.871l41.429,23.919
						C293.436,375.729,293.548,375.757,293.656,375.757z"/>
				</g>
				<g>
					<path style="fill:#455A64;" d="M286.75,379.743c0.219,0,0.433-0.115,0.553-0.319c0.176-0.305,0.071-0.695-0.234-0.871
						l-41.427-23.919c-0.304-0.175-0.694-0.07-0.872,0.233c-0.176,0.305-0.071,0.695,0.234,0.871l41.427,23.919
						C286.531,379.716,286.642,379.743,286.75,379.743z"/>
				</g>
				<g>
					<path style="fill:#455A64;" d="M279.846,383.731c0.219,0,0.433-0.115,0.553-0.319c0.176-0.305,0.071-0.695-0.234-0.871
						l-41.429-23.92c-0.304-0.174-0.694-0.072-0.872,0.233c-0.176,0.305-0.071,0.695,0.234,0.871l41.429,23.92
						C279.627,383.703,279.738,383.731,279.846,383.731z"/>
				</g>
				<g>
					<path style="fill:#455A64;" d="M272.94,387.717c0.219,0,0.433-0.115,0.553-0.318c0.176-0.305,0.071-0.695-0.234-0.871
						l-41.429-23.919c-0.302-0.174-0.694-0.071-0.872,0.233c-0.176,0.305-0.071,0.695,0.234,0.871l41.429,23.919
						C272.721,387.69,272.833,387.717,272.94,387.717z"/>
				</g>
				<g>
					<path style="fill:#455A64;" d="M266.037,391.703c0.219,0,0.433-0.115,0.553-0.319c0.176-0.305,0.071-0.695-0.234-0.87
						l-41.429-23.919c-0.304-0.173-0.694-0.07-0.872,0.233c-0.176,0.305-0.072,0.695,0.234,0.871l41.429,23.919
						C265.817,391.676,265.928,391.703,266.037,391.703z"/>
				</g>
			</g>
		</g>
		<g id="Sheets_1_">
			<g id="Character_4_">
				<g>
					<g>
						<g>
							<polygon style="fill:#FAFAFA;" points="345.531,356.571 273.437,398.272 273.437,354.052 345.533,312.35 							"/>
						</g>
						<g>
							<polygon style="fill:#F5F5F5;" points="223.461,369.418 273.437,398.272 273.437,354.052 223.459,325.197 							"/>
						</g>
						<polygon style="fill:#FFFFFF;" points="345.533,312.35 295.554,283.498 223.459,325.198 273.437,354.052 						"/>
					</g>
				</g>
			</g>
			<polygon style="opacity:0.1;" points="307.961,348.912 273.437,368.845 252.722,356.885 273.437,370.08 			"/>
			<polygon style="opacity:0.1;" points="328.676,348.093 273.437,379.985 232.008,356.067 273.437,381.191 			"/>
			<path style="opacity:0.1;" d="M338.596,328.758c0,0,1.142,6.45,0.569,9.715c0,0-9.041-0.223-24.299,3.986L338.596,328.758z"/>
			<polygon style="fill:#FFFFFF;" points="338.596,328.758 314.866,342.459 341.122,334.879 			"/>
			<path style="opacity:0.1;" d="M307.961,366.981L281.945,390.9c0,0-0.722-3.288-5.716-5.599L307.961,366.981z"/>
			<polygon style="fill:#FAFAFA;" points="307.961,366.981 283.528,387.553 276.229,385.301 			"/>
			<path style="opacity:0.1;" d="M231.787,342.783c0.136-0.21,0.221-0.324,0.221-0.324l16.441,9.492l-18.505-1.519
				C229.306,346.996,231.135,343.789,231.787,342.783z"/>
			<polygon style="fill:#FAFAFA;" points="248.448,351.951 232.007,342.459 226.533,345.346 			"/>
			<g style="opacity:0.3;">
				<g>
					<path style="fill:#455A64;" d="M334.685,311.868c0.103,0,0.203-0.054,0.259-0.149c0.082-0.143,0.033-0.325-0.109-0.407
						l-39.336-22.696c-0.142-0.081-0.325-0.033-0.408,0.109c-0.082,0.143-0.033,0.325,0.11,0.407l39.336,22.696
						C334.583,311.855,334.635,311.868,334.685,311.868z"/>
				</g>
				<g>
					<path style="fill:#455A64;" d="M331.456,313.733c0.103,0,0.203-0.054,0.258-0.149c0.082-0.142,0.033-0.325-0.109-0.407
						l-39.336-22.695c-0.141-0.082-0.325-0.034-0.408,0.109c-0.082,0.143-0.033,0.325,0.11,0.407l39.336,22.695
						C331.353,313.72,331.405,313.733,331.456,313.733z"/>
				</g>
				<g>
					<path style="fill:#455A64;" d="M328.226,315.597c0.102,0,0.203-0.053,0.258-0.149c0.082-0.143,0.033-0.325-0.109-0.407
						l-39.336-22.695c-0.142-0.082-0.325-0.033-0.408,0.109c-0.082,0.143-0.033,0.325,0.11,0.407l39.335,22.695
						C328.123,315.585,328.175,315.597,328.226,315.597z"/>
				</g>
				<g>
					<path style="fill:#455A64;" d="M324.995,317.463c0.102,0,0.203-0.053,0.258-0.149c0.082-0.143,0.033-0.325-0.109-0.407
						l-39.335-22.695c-0.139-0.082-0.323-0.035-0.408,0.109c-0.082,0.142-0.033,0.325,0.109,0.407l39.335,22.696
						C324.893,317.45,324.945,317.463,324.995,317.463z"/>
				</g>
				<g>
					<path style="fill:#455A64;" d="M321.766,319.328c0.103,0,0.203-0.054,0.259-0.149c0.082-0.143,0.033-0.325-0.109-0.408
						l-39.336-22.695c-0.141-0.082-0.324-0.033-0.408,0.109c-0.082,0.142-0.033,0.325,0.109,0.407l39.336,22.695
						C321.663,319.315,321.715,319.328,321.766,319.328z"/>
				</g>
				<g>
					<path style="fill:#455A64;" d="M318.535,321.192c0.102,0,0.203-0.054,0.259-0.149c0.082-0.143,0.033-0.325-0.109-0.407
						l-39.335-22.695c-0.142-0.082-0.325-0.033-0.408,0.109c-0.082,0.142-0.033,0.325,0.109,0.407l39.335,22.695
						C318.433,321.18,318.485,321.192,318.535,321.192z"/>
				</g>
				<g>
					<path style="fill:#455A64;" d="M315.306,323.057c0.103,0,0.203-0.054,0.259-0.149c0.082-0.142,0.033-0.325-0.109-0.407
						l-39.336-22.696c-0.142-0.082-0.325-0.034-0.408,0.109c-0.082,0.143-0.033,0.325,0.109,0.407l39.336,22.696
						C315.203,323.045,315.255,323.057,315.306,323.057z"/>
				</g>
				<g>
					<path style="fill:#455A64;" d="M312.076,324.922c0.103,0,0.203-0.054,0.259-0.149c0.082-0.142,0.033-0.325-0.109-0.407
						l-39.336-22.695c-0.141-0.081-0.325-0.033-0.408,0.109c-0.082,0.143-0.033,0.325,0.109,0.407l39.336,22.695
						C311.973,324.909,312.025,324.922,312.076,324.922z"/>
				</g>
				<g>
					<path style="fill:#455A64;" d="M308.846,326.787c0.102,0,0.203-0.054,0.259-0.149c0.082-0.142,0.033-0.325-0.11-0.407
						l-39.336-22.695c-0.142-0.081-0.325-0.033-0.408,0.109c-0.082,0.142-0.033,0.325,0.109,0.407l39.336,22.695
						C308.743,326.774,308.796,326.787,308.846,326.787z"/>
				</g>
				<g>
					<path style="fill:#455A64;" d="M287.25,341.722c0.103,0,0.203-0.054,0.258-0.149c0.082-0.142,0.034-0.325-0.109-0.407
						l-41.825-24.127c-0.142-0.082-0.325-0.033-0.408,0.109c-0.082,0.142-0.033,0.325,0.109,0.407l41.824,24.127
						C287.148,341.709,287.2,341.722,287.25,341.722z"/>
				</g>
				<g>
					<path style="fill:#455A64;" d="M284.02,343.587c0.103,0,0.203-0.054,0.259-0.149c0.082-0.142,0.033-0.325-0.109-0.407
						l-41.824-24.126c-0.141-0.082-0.325-0.033-0.408,0.109c-0.082,0.142-0.033,0.325,0.109,0.407l41.824,24.126
						C283.918,343.574,283.97,343.587,284.02,343.587z"/>
				</g>
				<g>
					<path style="fill:#455A64;" d="M280.79,345.452c0.103,0,0.203-0.054,0.259-0.149c0.082-0.143,0.033-0.325-0.109-0.407
						l-41.825-24.127c-0.142-0.081-0.325-0.033-0.408,0.109c-0.082,0.143-0.034,0.325,0.109,0.407l41.824,24.126
						C280.688,345.439,280.74,345.452,280.79,345.452z"/>
				</g>
			</g>
			<g>
				<g>
					<path style="fill:#E0E0E0;" d="M281.628,316.293c-0.059,0-0.117-0.015-0.171-0.046l-16.865-9.738
						c-0.165-0.095-0.22-0.304-0.125-0.468c0.095-0.165,0.306-0.22,0.468-0.125l16.865,9.738c0.165,0.095,0.221,0.304,0.126,0.468
						C281.862,316.232,281.746,316.293,281.628,316.293z"/>
				</g>
				<g>
					<path style="fill:#E0E0E0;" d="M279.384,317.589c-0.059,0-0.117-0.015-0.171-0.046l-16.865-9.738
						c-0.164-0.095-0.22-0.304-0.125-0.468c0.095-0.165,0.306-0.22,0.468-0.126l16.865,9.738c0.164,0.095,0.22,0.304,0.125,0.468
						C279.617,317.528,279.502,317.589,279.384,317.589z"/>
				</g>
				<g>
					<path style="fill:#E0E0E0;" d="M277.14,318.884c-0.059,0-0.117-0.015-0.171-0.046l-16.866-9.737
						c-0.165-0.095-0.22-0.304-0.125-0.468c0.095-0.165,0.306-0.219,0.468-0.126l16.866,9.737c0.165,0.095,0.22,0.304,0.126,0.468
						C277.374,318.823,277.258,318.884,277.14,318.884z"/>
				</g>
				<g>
					<path style="fill:#E0E0E0;" d="M274.896,320.18c-0.059,0-0.117-0.015-0.171-0.047l-16.866-9.737
						c-0.165-0.095-0.22-0.304-0.126-0.468c0.095-0.164,0.306-0.22,0.468-0.125l16.866,9.737c0.165,0.095,0.22,0.304,0.125,0.468
						C275.129,320.118,275.014,320.18,274.896,320.18z"/>
				</g>
				<polygon style="fill:#BA68C8;" points="284.621,317.678 305.566,329.771 296.59,334.953 275.644,322.86 				"/>
				<polygon style="opacity:0.5;fill:#FFFFFF;" points="284.621,317.678 305.566,329.771 296.59,334.953 275.644,322.86 				"/>
				<polygon style="fill:#FFFFFF;" points="278.265,323.086 296.223,333.473 295.55,329.293 290.044,327.916 289.93,322.983 				"/>
				<path style="fill:#FFFFFF;" d="M295.388,326.01c0.478,0.276,0.575,0.667,0.216,0.874c-0.358,0.207-1.036,0.151-1.514-0.125
					c-0.478-0.276-0.574-0.667-0.216-0.874C294.233,325.678,294.911,325.734,295.388,326.01z"/>
				<polygon style="fill:#BA68C8;" points="253.542,312.69 294.345,336.249 292.101,337.544 251.298,313.986 				"/>
				<polygon style="fill:#BA68C8;" points="234.628,324.067 275.431,347.626 273.186,348.921 232.384,325.363 				"/>
				<g>
					<path style="fill:#E0E0E0;" d="M272.652,321.476c-0.059,0-0.117-0.015-0.171-0.046l-16.865-9.738
						c-0.164-0.095-0.22-0.304-0.126-0.468c0.095-0.165,0.305-0.22,0.468-0.126l16.865,9.738c0.165,0.095,0.22,0.304,0.126,0.468
						C272.885,321.415,272.77,321.476,272.652,321.476z"/>
				</g>
				<g>
					<path style="fill:#E0E0E0;" d="M289.87,339.235c-0.059,0-0.117-0.015-0.172-0.047l-40.815-23.61
						c-0.164-0.095-0.219-0.304-0.125-0.469c0.095-0.164,0.304-0.219,0.469-0.125l40.815,23.61c0.164,0.095,0.219,0.304,0.125,0.469
						C290.103,339.174,289.988,339.235,289.87,339.235z"/>
				</g>
			</g>
		</g>
	</g>
</g>
<g id="Speech_Bubble">
	<g id="Speech_Bubble_25_">
		<g id="Speech_Bubble_26_">
			<g id="XMLID_5737_">
				<path id="XMLID_5742_" style="fill:#BA68C8;" d="M92.616,137.114l-3.656-6.873l2.941-8.49v-5.197l-9.001,5.197v5.197
					l3.869,6.703c0.066,0.113,0.159,0.187,0.263,0.234l-0.002,0.003L92.616,137.114z"/>
				<path id="XMLID_5741_" style="opacity:0.3;" d="M92.616,137.114l-3.656-6.873l2.941-8.49v-5.197l-9.001,5.197v5.197l3.869,6.703
					c0.066,0.113,0.159,0.187,0.263,0.234l-0.002,0.003L92.616,137.114z"/>
				<path id="XMLID_5740_" style="fill:#BA68C8;" d="M118.261,55.094c0-1.721-1.208-3.813-2.699-4.674l-2.197-1.269
					c-1.49-0.861-3.907-0.861-5.397,0l-47.485,27.39c-1.491,0.86-2.699,2.953-2.699,4.674v54.869c0,1.721,1.209,3.814,2.699,4.674
					l2.197,1.269c1.49,0.86,3.907,0.86,5.397,0l20.474-11.806l3.862,6.689c0.247,0.428,0.882,0.367,1.044-0.1l4.081-11.782
					l18.024-10.392c1.491-0.86,2.698-2.953,2.698-4.674L118.261,55.094z"/>
				<path id="XMLID_5739_" style="opacity:0.3;" d="M57.785,136.085c0,1.721,1.208,3.813,2.699,4.674l2.197,1.269
					c1.347,0.778,3.443,0.845,4.936,0.217c-1.27,0.48-2.237-0.236-2.237-1.776l0-54.87c0-0.861,0.302-1.814,0.79-2.66l-7.595-4.385
					c-0.488,0.846-0.79,1.799-0.79,2.66V136.085z"/>
				<path id="XMLID_5738_" style="opacity:0.3;fill:#FFFFFF;" d="M118.173,54.327c-0.315-1.146-1.36-1.511-2.606-0.793
					L68.077,80.928c-0.743,0.428-1.422,1.158-1.901,2.014l-7.592-4.381c0.491-0.856,1.158-1.587,1.901-2.015l47.478-27.395
					c1.498-0.856,3.915-0.856,5.401,0l2.203,1.272C116.839,51.154,117.909,52.791,118.173,54.327z"/>
			</g>
		</g>
		<g>
			
				<ellipse transform="matrix(0.5 -0.866 0.866 0.5 -30.5632 123.6631)" style="fill:#FAFAFA;" cx="91.813" cy="88.3" rx="16.934" ry="9.777"/>
			<path style="fill:#BA68C8;" d="M91.811,77.096v11.209l-9.698,5.593C82.651,87.781,86.785,80.626,91.811,77.096z"/>
			<path style="fill:#BA68C8;" d="M101.575,81.385c0,0.427-0.022,0.87-0.059,1.312l-9.706,5.608V77.096
				c0.361-0.258,0.73-0.494,1.105-0.707c1.518-0.877,2.985-1.341,4.245-1.341C101.259,75.047,101.575,79.903,101.575,81.385z"/>
			<path style="opacity:0.5;fill:#FFFFFF;" d="M101.575,81.385c0,0.427-0.022,0.87-0.059,1.312l-9.706,5.608V77.096
				c0.361-0.258,0.73-0.494,1.105-0.707c1.518-0.877,2.985-1.341,4.245-1.341C101.259,75.047,101.575,79.903,101.575,81.385z"/>
			<path style="fill:#263238;" d="M101.517,82.696c-0.538,6.117-4.672,13.28-9.706,16.81V88.304L101.517,82.696z"/>
			<path style="fill:#BA68C8;" d="M91.811,88.304v11.202c-0.361,0.258-0.729,0.494-1.105,0.707
				c-1.518,0.877-2.985,1.334-4.237,1.334c-4.097,0-4.414-4.849-4.414-6.338c0-0.427,0.022-0.87,0.059-1.312L91.811,88.304z"/>
			<path style="opacity:0.3;" d="M91.811,88.304v11.202c-0.361,0.258-0.729,0.494-1.105,0.707c-1.518,0.877-2.985,1.334-4.237,1.334
				c-4.097,0-4.414-4.849-4.414-6.338c0-0.427,0.022-0.87,0.059-1.312L91.811,88.304z"/>
			<g>
				<path style="fill:#263238;" d="M91.813,105.951c-0.204,0-0.368-0.165-0.368-0.368V71.017c0-0.204,0.165-0.368,0.368-0.368
					c0.204,0,0.368,0.164,0.368,0.368v34.566C92.182,105.787,92.017,105.951,91.813,105.951z"/>
			</g>
			<g>
				<path style="fill:#263238;" d="M76.846,97.31c-0.128,0-0.251-0.066-0.319-0.185c-0.102-0.176-0.042-0.401,0.135-0.503
					l29.935-17.283c0.173-0.102,0.401-0.042,0.503,0.135c0.102,0.176,0.042,0.401-0.135,0.503L77.03,97.26
					C76.972,97.294,76.909,97.31,76.846,97.31z"/>
			</g>
		</g>
		<g>
			<path style="fill:#FAFAFA;" d="M85.838,115.719v1.14l-1.199,0.782v-1.031c0-1.013-0.246-1.322-0.705-1.057
				c-0.459,0.265-0.706,0.859-0.706,1.692v6.911c0,0.832,0.247,1.142,0.706,0.877c0.458-0.265,0.705-0.859,0.705-1.873v-1.411
				l1.199-0.602v1.52c0,1.918-0.717,3.454-1.939,4.16c-1.211,0.699-1.917-0.016-1.917-1.934v-6.947c0-1.918,0.706-3.447,1.917-4.145
				C85.121,113.094,85.838,113.801,85.838,115.719z"/>
			<path style="fill:#FAFAFA;" d="M92.761,121.528l-1.246,0.719v-8.792l-0.023,0.014l-1.034,7.58l-0.74,0.427l-1.035-6.386
				l-0.023,0.014v8.792l-1.175,0.678v-12.663l1.634-0.943l0.976,6.238l0.023-0.013l0.964-7.358l1.68-0.97V121.528z"/>
			<path style="fill:#FAFAFA;" d="M96.861,113.444v5.716l-1.245,0.719v-5.735l-1.729-5.93l1.317-0.76l1.046,3.882l0.023-0.013
				l0.999-5.063l1.294-0.747L96.861,113.444z"/>
			<path style="fill:#FAFAFA;" d="M102.302,108.385l1.728,6.637l-1.328,0.767l-1.223-4.83l-0.54,1.94v3.908l-1.246,0.719v-12.663
				l1.246-0.719v5.282l0.023-0.014l1.728-6.28l1.305-0.753L102.302,108.385z"/>
		</g>
	</g>
</g>
<g id="Character">
	<g id="Character_23_">
		<g id="XMLID_5762_">
			<g>
				<g id="XMLID_5763_">
					<path id="XMLID_5766_" style="fill:#263238;" d="M393.401,350.096c0.769,2.992,0.1,11.224,0.1,11.224s-1.266,2.851-5.873,4.792
						l-2.206-11.415L393.401,350.096z"/>
					<polygon id="XMLID_5765_" points="387.628,366.111 377.388,362.877 374.828,353.85 386.355,359.523 					"/>
				</g>
				<path id="XMLID_5764_" style="fill:#37474F;" d="M376.721,339.815l-0.077-2.141c-1.377,0.689-4.302,11.884-8.338,19.585
					c-3.686,7.032-11.104,11.011-13.491,14.08c-3.195,4.105,3.163,9.279,13.249,7.002c5.006-1.13,12.568-4.426,14.59-7.835
					c2.022-3.409,2.649-9.637,4.305-12.145c1.656-2.508,5.627-5.421,6.444-8.265c0.449-1.563,0.784-5.022-0.11-7.822
					c-0.821-2.57-1.548-5.68-2.424-5.389l-0.037,1.961c-0.661,1.388-3.085,3.021-8.188,3.355
					C380.216,342.359,377.858,342.014,376.721,339.815z"/>
			</g>
			<path id="XMLID_5767_" style="fill:#37474F;" d="M447.316,341.446c2.435,0.014,0.94,9.455,1.638,15.51
				c0.747,6.491,2.931,11.213,3.6,16.534c0.765,6.08,0.251,8.636-1.875,13.665c-1.654,3.911-10.124,9.342-13.425,3.812
				c-3.34-5.596-4.075-11.879-3.772-17.945c0.314-6.271,0.64-10.856,0.713-15.623c0.064-4.202-3.282-14.031-0.134-14.669
				l0.175,1.634c1.158,2.251,11.983,3.693,13.212-0.675L447.316,341.446z"/>
			<path style="fill:#FFA8A7;" d="M447.316,341.446c0,0,0.909-43.842-1.585-60.553c-2.139-14.339-4.924-20.835-5.371-24.095
				c0,0-2.606-33.766-3.223-62.44c-0.297-13.801-1.687-23.612-9.433-39.935l-47.422,11.337c-0.906,7.299-4.789,56.667-5.091,99.782
				c-0.265,37.743,1.849,70.066-1.527,78.767c-1.397,3.6-3.864,8.991-6.43,13.847c-0.688,1.303-2.444,3.7-3.346,5.004
				c-2.941,3.509,1.474,5.213,6.052,4.549c4.83-0.7,6.577-2.436,8.342-4.549c1.553-1.859,4.279-8.627,5.715-10.633
				c4.845-6.764,5.865-8.387,6.68-10.37c1.113-2.706,0.368-4.545,0.188-5.272c0.345-4.574,8.488-43.589,8.508-56.901
				c0.01-6.344-0.517-15.074-0.517-15.074l7.16-44.018c3.082,10.935,7.777,32.05,9.643,42.483
				c2.282,12.746,10.387,47.624,14.779,64.578c1.428,5.513,3.069,10.625,3.62,14.78c0.002,0.016,0.175,1.634,0.175,1.634
				c0.125,1.891,1.591,21.881,2.386,26.131c1.664,8.876,9.557,7.667,10.741,0.459c1.008-6.133,0.139-24.94,0.084-27.265
				L447.316,341.446z"/>
			<path style="fill:#455A64;" d="M381.522,150.59l0.082,3.534c-5.596,17.173-7.954,53.511-7.662,79.314
				c0.395,34.964,0.282,106.04,0.282,106.04s-0.786,3.869,6.4,4.11c7.186,0.241,11.13-6.043,11.13-6.043s8.065-45.797,8.638-55.886
				c0.573-10.089-0.185-16.398-0.185-16.398l5.937-42.246c0,0,8.125,39.903,9.105,44.913c0.98,5.011,17.461,84.213,17.461,84.213
				s1.911,2.906,8.772,1.913c6.862-0.994,8.176-3.949,8.176-3.949s-1.749-60.886-3.189-71.035
				c-1.44-10.149-4.863-17.908-5.405-24.548c-0.543-6.639,1.259-35.948,1.096-50.365c-0.111-9.839,0.447-16.838-0.909-24.006
				c-2.742-14.495-8.408-21.834-10.773-27.492l-0.279-2.984C422.236,155.923,395.557,159.613,381.522,150.59z"/>
			<g>
				<path style="fill:#37474F;" d="M424.609,152.604c6.935,14.691,12.261,27.907,12.751,51.383
					c0.106,5.065,0.157,10.045,0.206,14.862c0.174,16.856,0.324,31.413,2.711,38.499c0.51,1.515,1.073,3.044,1.664,4.654
					c0.743,2.022,1.531,4.168,2.319,6.556c0.844,3.21,1.667,6.69,2.209,10.509c0.231,1.627,0.42,3.467,0.575,5.407
					c-1.785-10.014-4.167-16.507-6.21-22.066c-0.595-1.619-1.16-3.159-1.674-4.684c-2.448-7.264-2.598-21.908-2.773-38.864
					c-0.05-4.813-0.1-9.79-0.206-14.849c-0.487-23.297-5.788-36.403-12.686-51.006C423.875,152.875,424.246,152.741,424.609,152.604
					z"/>
				<path style="fill:#37474F;" d="M406.144,223.014l-5.633-26.359c0,0-9.336-2.325-13.737-7.959c0,0,0.752,6.915,10.365,10.835
					l5.813,24.868l-0.934,27.98L406.144,223.014z"/>
			</g>
		</g>
		<g>
			<path style="fill:#263238;" d="M432.287,56.142c1.56,4.334,1.213,9.081,1.128,13.686c-0.029,1.574-0.011,3.215,0.691,4.625
				c0.701,1.41,2.292,2.504,3.819,2.12c1.527-0.384,2.322-2.674,1.082-3.644c1.54-0.117,3.085,0.975,3.489,2.465
				c0.404,1.491-0.38,3.213-1.769,3.889c2.84,0.519,4.339,4.293,2.928,6.812c-1.412,2.519-4.987,3.351-7.573,2.066
				c1.054,2.401,1.758,5.638-1.381,8.455c-2.768,2.484-7.168,2.899-9.228,1.278c-1.792,3.278-3.919,2.781-7.654,2.833
				c-3.735,0.051-7.426-2.035-9.308-5.262c-0.031,4.119-4.919,6.383-8.476,6.111c-2.355-0.18-4.623-1.321-6.171-3.106
				c-2.688,2.404-6.933,2.868-10.076,1.101c-3.144-1.767-4.954-5.635-4.297-9.181c-2.979-0.23-5.716-2.395-6.626-5.24
				c-0.91-2.846,0.064-6.197,2.356-8.112c-2.586-1.108-4.219-3.703-2.953-6.552c0.633,1.899,2.112,2.371,4.116,2.026
				c3.872-0.668,4.681-4.326,4.936-6.559c0.231-2.02,2.222-1.354,3.658-2.792c1.573-1.575,3.465-2.802,5.489-3.715
				c1.021-0.461,2.076-0.843,3.15-1.158c0.967-0.284,2.13-0.348,3.044-0.753c2.087-0.924,4.104-2.114,6.227-3.023
				c2.269-0.972,4.571-1.868,6.9-2.685c4.911-1.724,11.812-5.041,16.868-2.394C429.291,50.809,431.29,53.372,432.287,56.142z"/>
			<g>
				<path style="fill:#BA68C8;" d="M388.52,96.176c-9.141-3.722-12.763-1.378-16.5,8.264c-3.847,9.926-11.705,33.368-14.306,40.668
					c1.255,4.072,7.695,8.385,11.932,6.652c4.237-1.733,17.768-33.262,17.768-33.262L388.52,96.176z"/>
				<path style="opacity:0.15;" d="M388.52,96.176c-9.141-3.722-12.763-1.378-16.5,8.264c-3.847,9.926-11.705,33.368-14.306,40.668
					c1.255,4.072,7.695,8.385,11.932,6.652c4.237-1.733,17.768-33.262,17.768-33.262L388.52,96.176z"/>
				<path id="XMLID_5761_" style="fill:#BA68C8;" d="M414.154,96.059c0,0,13.797,1.423,13.796,1.427
					c-2.303,14.689,4.948,29.372,4.948,29.372c0.337,9.388,1.348,20.268-2.735,22.438c-0.084,2.255-0.467,3.652-0.467,3.652
					c-10.324,5.354-33.307,8.579-47.162,1.154l-1.017-4.044c-3.48-2.229-2.714-12.027-3.356-19.093
					c-9.118-12.405,3.278-28.305,10.36-34.788l8.785-0.099L414.154,96.059z"/>
				<path id="XMLID_5768_" style="opacity:0.3;" d="M414.154,96.059c0,0,13.797,1.423,13.796,1.427
					c-2.303,14.689,4.948,29.372,4.948,29.372c0.337,9.388,1.348,20.268-2.735,22.438c-0.084,2.255-0.467,3.652-0.467,3.652
					c-10.324,5.354-33.307,8.579-47.162,1.154l-1.017-4.044c-3.48-2.229-2.714-12.027-3.356-19.093
					c-9.118-12.405,3.278-28.305,10.36-34.788l8.785-0.099L414.154,96.059z"/>
				<path style="fill:#37474F;" d="M381.604,154.124l-0.088-4.067c14.035,9.023,40.685,5.488,48.647-0.762l0.315,3.361
					c0,0-3.607,6.424-23.727,7.191C386.633,160.613,381.604,154.124,381.604,154.124z"/>
			</g>
			<g id="XMLID_5750_">
				<path style="fill:#263238;" d="M374.502,56.656c-0.128-0.866,0.007-1.744,0.352-2.545c0.322-0.747,1.125-1.33,1.399-2.039
					c0.543-1.406-1.07-3.421-1.2-4.895c-0.152-1.735,0.807-3.446,2.195-4.499c1.388-1.052,3.146-1.516,4.884-1.643
					c1.732-0.126,3.486,0.061,5.152,0.55c4.702-10.762,30.428-11.263,35.37,6.772c2.117,1.391,4.008,2.845,5.38,5.026
					c4.123,6.553,2.402,16.064-1.611,22.29c-4.037,6.262-12.187,13.166-12.225,15.629l-29.964-30.826c0,0-2.545,3.983-5.457,4.174
					c-2.912,0.191-3.222-2.121-3.222-2.121c0.884,0.947,2.574,0.138,2.253-1.201C377.488,59.99,374.899,59.353,374.502,56.656z"/>
				<path id="XMLID_5760_" style="fill:#FFA8A7;" d="M381.145,57.284c-1.084,4.534-0.944,9.351-0.876,13.983
					c0.199,13.527,4.384,16.901,6.492,17.881c2.107,0.98,6.189,0.427,10.159-0.23l0.068,7.162l-4.23,0.048
					c0,0-8.579,10.696,2.264,11.733c16.062,1.537,24.538-11.244,24.538-11.244l-5.404-0.558l0.093-17.746
					c0,0,3.112,2.014,6.308-0.404c3.521-2.664,4.427-7.95,1.902-10.66c-2.524-2.71-5.768-2.345-8.626,0.747
					c-4.411,5.63-4.793-0.366-4.707-3.046c0.152-4.715-1.937-13.445-10.575-12.608c-1.306,0.127-2.489,0.712-3.537,1.538
					c-1.493,1.178-3.681,1.168-5.033-0.17C387.274,51.034,382.49,51.658,381.145,57.284z"/>
				<g>
					<g id="XMLID_5757_">
						<path id="XMLID_5758_" style="fill:#263238;" d="M386.7,65.904c0.044,0.926-0.643,1.71-1.534,1.75
							c-0.892,0.04-1.651-0.679-1.695-1.606c-0.044-0.926,0.643-1.709,1.535-1.749C385.898,64.259,386.656,64.978,386.7,65.904z"/>
					</g>
					<g id="XMLID_5755_">
						<path id="XMLID_5756_" style="fill:#263238;" d="M400.798,66.24c0.048,0.995-0.69,1.835-1.647,1.879
							c-0.957,0.043-1.771-0.728-1.818-1.722c-0.048-0.995,0.69-1.835,1.647-1.878C399.936,64.475,400.751,65.246,400.798,66.24z"/>
					</g>
					<path id="XMLID_5754_" style="fill:#B16668;" d="M397.337,77.831l-6.473,2.092c0.522,1.928,2.394,3.022,4.18,2.445
						C396.833,81.791,397.859,79.76,397.337,77.831z"/>
					<path style="fill:#F28F8F;" d="M393.725,82.501c-0.006-1.764,1.41-3.207,3.177-3.227c0.184-0.002,0.362,0.02,0.538,0.048
						c-0.169,1.391-1.071,2.617-2.396,3.045C394.603,82.511,394.156,82.551,393.725,82.501z"/>
					<path id="XMLID_5753_" style="fill:#263238;" d="M382.168,61.233l4.417-2.298c-0.555-1.295-2.113-1.72-3.333-1.085
						C382.032,58.485,381.612,59.939,382.168,61.233z"/>
					<path id="XMLID_5759_" style="fill:#263238;" d="M397.921,59.692l4.869,1.038c0.396-1.352-0.535-2.671-1.881-2.958
						C399.565,57.486,398.316,58.34,397.921,59.692z"/>
					<polygon id="XMLID_5752_" style="fill:#F28F8F;" points="392.787,64.315 392.784,75.019 387.125,74.222 					"/>
				</g>
				<path id="XMLID_5751_" style="fill:#F28F8F;" d="M396.919,88.918c4.182-0.537,12.797-3.039,14.164-6.566
					c0,0-0.464,2.22-3.048,4.491c-2.586,2.27-11.091,4.692-11.091,4.692L396.919,88.918z"/>
				<g>
					<path style="fill:#455A64;" d="M404.995,62.332l12.654,3.215c0,0-1.707,0.429-3.273,1.896l-9.422-2.647L404.995,62.332z"/>
					<path style="fill:#455A64;" d="M378.418,62.269c0.027,0.682,0.44,1.329,0.654,1.601c0.113,0.143,0.215,0.331,0.265,0.571
						c0.226,1.085,0.381,3.132,0.854,4.295c0.475,1.162,1.484,3.012,4.488,3.18c0.584,0.034,1.104,0.003,1.566-0.08
						c0.04-0.006,0.08-0.014,0.118-0.022c0.49-0.097,0.914-0.256,1.286-0.458c0.026-0.014,0.053-0.029,0.077-0.044
						c0.038-0.02,0.074-0.042,0.111-0.065c0.032-0.019,0.064-0.04,0.139-0.09c0.044-0.029,0.087-0.059,0.129-0.091
						c0.049-0.035,0.095-0.07,0.142-0.108c0.046-0.036,0.091-0.072,0.135-0.113c0.089-0.077,0.172-0.156,0.253-0.24
						c0.46-0.468,0.8-1.024,1.073-1.587c0.711-1.468,0.608-3.558,1.705-3.763c0.041-0.007,0.086-0.013,0.131-0.015
						c0.045-0.004,0.092-0.003,0.141-0.001c1.479,0.07,1.24,2.336,2.015,3.984c0.773,1.651,2.09,3.279,5.299,3.43
						c0.143,0.007,0.282,0.009,0.415,0.01c0.114-0.002,0.225-0.004,0.332-0.012c0.277-0.011,0.536-0.041,0.777-0.084
						c0.084-0.016,0.165-0.031,0.245-0.048c0.079-0.018,0.159-0.039,0.234-0.059c0.049-0.011,0.099-0.026,0.148-0.042
						c0.331-0.103,0.622-0.23,0.883-0.38c0.104-0.061,0.201-0.122,0.298-0.187c0.188-0.129,0.354-0.267,0.517-0.424
						c0.498-0.485,0.807-1.029,1.022-1.474c0.536-1.109,0.734-3.144,1.016-4.197c0.076-0.28,0.169-0.473,0.266-0.606
						c0.218-0.3,0.732-0.818,0.773-1.499c0.042-0.681-0.419-1.29-0.85-1.367c-0.251-0.045-0.513-0.089-0.784-0.131
						c-2.523-0.39-5.823-0.634-7.816-0.164c-2.501,0.596-3.386,1.361-4.767,1.297c-1.291-0.073-2.103-0.924-4.425-1.768
						c-1.853-0.67-4.941-0.754-7.307-0.616c-0.253,0.014-0.498,0.032-0.733,0.052C378.839,60.989,378.391,61.587,378.418,62.269z
						 M394.666,64.356c0.137-0.188,0.39-0.379,0.724-0.553c0.042-0.024,0.084-0.046,0.13-0.067c0.024-0.013,0.047-0.023,0.071-0.034
						c0.112-0.053,0.23-0.106,0.355-0.153c0.104-0.042,0.213-0.083,0.327-0.122c0.329-0.115,0.692-0.216,1.069-0.298
						c0.139-0.03,0.281-0.059,0.424-0.084c0.361-0.066,0.728-0.11,1.094-0.135c0.088-0.007,0.174-0.012,0.255-0.012
						c2.392-0.115,3.862,0.496,4.388,1.003c0.544,0.526,0.218,2.721-0.046,3.833c-0.007,0.028-0.014,0.055-0.02,0.083
						c-0.007,0.027-0.013,0.057-0.02,0.086c-0.032,0.134-0.07,0.287-0.117,0.449c-0.026,0.089-0.056,0.183-0.087,0.278
						c-0.002,0.005-0.002,0.008-0.005,0.011c-0.049,0.15-0.106,0.304-0.175,0.462v0.002c-0.022,0.051-0.046,0.106-0.071,0.158
						c-0.013,0.03-0.028,0.062-0.046,0.094c-0.015,0.035-0.033,0.07-0.053,0.105c-0.022,0.044-0.046,0.088-0.07,0.131
						c-0.026,0.049-0.054,0.098-0.085,0.146c-0.031,0.051-0.063,0.102-0.1,0.155c-0.033,0.051-0.07,0.103-0.109,0.155
						c-0.621,0.837-1.646,1.525-3.387,1.463c-1.721-0.061-2.8-0.689-3.478-1.459l-0.002-0.001c-0.672-0.768-0.953-1.674-1.08-2.299
						C394.3,66.488,394.178,65.022,394.666,64.356z M380.672,62.727c0.136-0.122,0.333-0.244,0.595-0.35
						c0.016-0.008,0.03-0.013,0.046-0.018c0.081-0.034,0.167-0.064,0.261-0.093c0.05-0.015,0.105-0.032,0.159-0.045
						c0.042-0.011,0.089-0.024,0.132-0.032c0.03-0.009,0.061-0.014,0.089-0.02c0.012-0.004,0.024-0.006,0.034-0.007
						c0.042-0.009,0.087-0.018,0.13-0.026c0.171-0.032,0.355-0.056,0.552-0.072c0.096-0.009,0.196-0.017,0.299-0.019
						c0.058-0.004,0.118-0.005,0.18-0.007c0.046-0.002,0.092-0.002,0.139-0.001c0.122,0.001,0.25,0.002,0.38,0.008
						c0.046,0.002,0.092,0.004,0.14,0.007c0.042,0.002,0.086,0.005,0.13,0.008c0.34,0.024,0.706,0.07,1.096,0.14
						c1.693,0.302,3.444,1.149,3.884,1.863c0.44,0.714,0.288,2.164,0.025,3.402c-0.053,0.245-0.129,0.528-0.242,0.827
						c-0.006,0.02-0.016,0.042-0.025,0.064c-0.01,0.027-0.021,0.055-0.033,0.083c-0.008,0.019-0.015,0.037-0.023,0.056
						c-0.014,0.033-0.029,0.066-0.045,0.099c-0.031,0.069-0.064,0.136-0.098,0.203c-0.029,0.057-0.062,0.116-0.094,0.173
						c-0.012,0.021-0.025,0.042-0.037,0.061c-0.023,0.037-0.047,0.077-0.074,0.116c-0.021,0.032-0.043,0.066-0.067,0.1
						c-0.002,0.005-0.006,0.011-0.01,0.016c-0.622,0.887-1.705,1.634-3.596,1.501c-0.713-0.047-1.297-0.226-1.771-0.487
						c-1.662-0.915-2.032-2.83-2.203-3.717C380.409,65.424,380.152,63.196,380.672,62.727z"/>
				</g>
			</g>
		</g>
		<g>
			<g id="XMLID_5743_">
				<path style="fill:#FFA8A7;" d="M396.016,159.818c0.396-0.52,1.607,0.564,4.186,1.137c3.293,0.732,4.573,0.616,8.066,1.529
					c1.316,0.344,2.667,0.865,4.861,0.898l-12.721,2.606c-1.929-0.952-2.693-1.387-3.569-2.173
					C395.099,162.255,395.507,160.486,396.016,159.818z"/>
				<polygon style="fill:#FAFAFA;" points="349.516,129.969 394.619,140.442 406.536,193.028 405.758,194.072 362.599,183.286 
					348.737,131.013 				"/>
				<path style="fill:#E0E0E0;" d="M394.619,140.442c0,0-12.848-3.825-21.095-6.422c-4.851-1.528-16.095-7.071-18.171-9.629
					c0,0-1.569,2.977-1.025,6.622L394.619,140.442z"/>
				<polygon id="XMLID_5749_" style="fill:#EBEBEB;" points="348.737,131.013 393.84,141.486 405.758,194.072 362.6,183.286 				"/>
				<path style="fill:#FFA8A7;" d="M353.651,149.543c-2.563,3.112-2.453,5.565-1.508,9.662c0.946,4.097,3.611,8.975,5.108,10.296
					c1.497,1.321,4.302,3.199,7.454,2.562c3.119-0.631,3.242-4.664,4.654-6.347c2.258-2.69-0.783-4.683-3.714-5.085
					c-6.911-0.95-10.23-4.435-10.23-4.435L353.651,149.543z"/>
				<polygon style="fill:#E0E0E0;" points="393.84,141.486 405.758,194.072 406.536,193.028 394.619,140.442 				"/>
			</g>
			<path style="fill:#FFA8A7;" d="M391.411,166.077c5.048,0.415,8.997-0.089,8.997-0.089l12.721-2.606
				c2.452,0.038,8.023-1.562,14.218-4.052c7.959-3.199,11.693-5.36,11.693-5.36s-4.047-13.92-9.817-27.231
				c-5.329-7.469-7.944-22.526-2.031-29.342c10.579-0.535,14.276,4.908,18.392,15.231c2.837,7.117,11.006,32.345,13.23,41.039
				c1.274,4.981,1.77,9.386-3.666,12.489c-4.838,2.761-19.996,7.605-30.714,10.646c-5.729,1.626-11.28,2.911-16.316,3.361
				c-12.733,1.137-16.376,0.25-19.655-4.154c-1.42-1.907-1.798-4.8-2.998-6.367c-1.074-1.403-1.564-2.23-1.139-3.074
				C385.185,164.863,387.341,165.742,391.411,166.077z"/>
			<g>
				<path style="fill:#BA68C8;" d="M427.192,97.396c4.977-1.073,8.976-3.632,12.659,0.877c3.841,4.702,4.599,7.689,9.132,21.062
					c4.702,13.87,9.034,31.395,9.034,31.395s-12.107-1.203-18.977,3.24l-10.712-26.602c0,0-5.607-9.068-5.241-17.74
					C423.452,100.956,427.192,97.396,427.192,97.396z"/>
				<path style="opacity:0.15;" d="M427.192,97.396c4.977-1.073,8.976-3.632,12.659,0.877c3.841,4.702,4.599,7.689,9.132,21.062
					c4.702,13.87,9.034,31.395,9.034,31.395s-12.107-1.203-18.977,3.24l-10.712-26.602c0,0-5.607-9.068-5.241-17.74
					C423.452,100.956,427.192,97.396,427.192,97.396z"/>
				<path style="fill:#BA68C8;" d="M439.04,153.97c0,0,6.745-2.245,12.626-1.366c5.881,0.879,7.504,2.555,7.504,2.555
					s0.039-4.824-1.772-6.877c0,0-9.494-2.365-19.014,4.057L439.04,153.97z"/>
				<path style="opacity:0.3;" d="M439.04,153.97c0,0,6.745-2.245,12.626-1.366c5.881,0.879,7.504,2.555,7.504,2.555
					s0.039-4.824-1.772-6.877c0,0-9.494-2.365-19.014,4.057L439.04,153.97z"/>
			</g>
		</g>
	</g>
</g>
</svg>
